SplineFontDB: 3.2
FontName: VisitorTT2-BRK-
FullName: Visitor TT2 -BRK-
FamilyName: Visitor TT2 (BRK)
Weight: Book
Copyright: NIGMA FONTS   [e-mail]  kentpw@norwich.net
Version: 3.22
ItalicAngle: 0
UnderlinePosition: -125
UnderlineWidth: 50
Ascent: 800
Descent: 200
InvalidEm: 0
sfntRevision: 0x00010000
LayerCount: 2
Layer: 0 1 "Back" 1
Layer: 1 1 "Fore" 0
XUID: [1021 43 -162863971 11834946]
StyleMap: 0x0040
FSType: 0
OS2Version: 0
OS2_WeightWidthSlopeOnly: 0
OS2_UseTypoMetrics: 0
CreationTime: 1001363286
ModificationTime: 315532800
PfmFamily: 81
TTFWeight: 400
TTFWidth: 5
LineGap: 9
VLineGap: 0
Panose: 0 0 0 0 0 0 0 0 0 0
OS2TypoAscent: 750
OS2TypoAOffset: 0
OS2TypoDescent: -170
OS2TypoDOffset: 0
OS2TypoLinegap: 30
OS2WinAscent: 544
OS2WinAOffset: 0
OS2WinDescent: 156
OS2WinDOffset: 0
HheadAscent: 544
HheadAOffset: 0
HheadDescent: -156
HheadDOffset: 0
OS2SubXSize: 100
OS2SubYSize: 100
OS2SubXOff: 0
OS2SubYOff: 140
OS2SupXSize: 100
OS2SupYSize: 100
OS2SupXOff: 0
OS2SupYOff: 140
OS2StrikeYSize: 50
OS2StrikeYPos: 250
OS2Vendor: 'ERUC'
OS2UnicodeRanges: 80000003.00000000.00000000.00000000
DEI: 91125
TtTable: prep
PUSHW_1
 0
CALL
PUSHW_3
 0
 3
 7
CALL
EndTTInstrs
TtTable: fpgm
PUSHW_1
 0
FDEF
MPPEM
PUSHW_1
 9
LT
IF
PUSHB_2
 1
 1
INSTCTRL
EIF
PUSHW_1
 511
SCANCTRL
PUSHW_1
 132
SCVTCI
PUSHW_2
 9
 3
SDS
SDB
ENDF
PUSHW_1
 1
FDEF
DUP
DUP
RCVT
ROUND[Black]
WCVTP
PUSHB_1
 1
ADD
ENDF
PUSHW_1
 2
FDEF
PUSHW_1
 1
LOOPCALL
POP
ENDF
PUSHW_1
 3
FDEF
DUP
GC[cur]
PUSHB_1
 3
CINDEX
GC[cur]
GT
IF
SWAP
EIF
DUP
ROLL
DUP
ROLL
MD[grid]
ABS
ROLL
DUP
GC[cur]
DUP
ROUND[Grey]
SUB
ABS
PUSHB_1
 4
CINDEX
GC[cur]
DUP
ROUND[Grey]
SUB
ABS
GT
IF
SWAP
NEG
ROLL
EIF
MDAP[rnd]
DUP
PUSHB_1
 0
GTEQ
IF
ROUND[Black]
DUP
PUSHB_1
 0
EQ
IF
POP
PUSHB_1
 64
EIF
ELSE
ROUND[Black]
DUP
PUSHB_1
 0
EQ
IF
POP
PUSHB_1
 64
NEG
EIF
EIF
MSIRP[no-rp0]
ENDF
PUSHW_1
 4
FDEF
DUP
GC[cur]
PUSHB_1
 4
CINDEX
GC[cur]
GT
IF
SWAP
ROLL
EIF
DUP
GC[cur]
DUP
ROUND[White]
SUB
ABS
PUSHB_1
 4
CINDEX
GC[cur]
DUP
ROUND[White]
SUB
ABS
GT
IF
SWAP

StartChar: .notdef
Encoding: 65536 -1 0
Width: 467
GlyphClass: 1
Flags: W
LayerCount: 2
Fore
SplineSet
0 0 m 1,0,-1
 389 0 l 1,1,-1
 389 388 l 1,2,-1
 0 388 l 1,3,-1
 0 0 l 1,0,-1
101 23 m 2,4,-1
 100 23 l 2,5,6
 99 23 99 23 99 27 c 1,7,-1
 92 27 l 1,8,9
 92 32 92 32 89 37.5 c 128,-1,10
 86 43 86 43 80 43 c 2,11,-1
 79 43 l 1,12,13
 69 36 69 36 62 32.5 c 128,-1,14
 55 29 55 29 44 29 c 1,15,16
 44 34 44 34 46 37.5 c 128,-1,17
 48 41 48 41 50 46 c 1,18,19
 48 46 48 46 42 46 c 256,20,21
 36 46 36 46 34 47 c 0,22,23
 33 47 33 47 31.5 47.5 c 128,-1,24
 30 48 30 48 29 48 c 1,25,-1
 29 49 l 2,26,27
 29 54 29 54 30.5 56 c 128,-1,28
 32 58 32 58 34 62 c 0,29,30
 34 63 34 63 34 65 c 256,31,32
 34 67 34 67 35 67 c 1,33,34
 35 69 35 69 38 69 c 0,35,36
 45 75 45 75 45 82 c 0,37,38
 45 87 45 87 39 90.5 c 128,-1,39
 33 94 33 94 30 98 c 0,40,41
 25 103 25 103 24.5 111.5 c 128,-1,42
 24 120 24 120 24 127 c 2,43,-1
 24 133 l 2,44,45
 24 136 24 136 27 138 c 0,46,47
 28 139 28 139 34.5 144 c 128,-1,48
 41 149 41 149 43 151 c 0,49,50
 44 152 44 152 44 154 c 0,51,52
 44 166 44 166 39.5 177 c 128,-1,53
 35 188 35 188 35 200 c 0,54,55
 35 206 35 206 37 208 c 2,56,-1
 37 226 l 2,57,58
 37 233 37 233 36 246 c 128,-1,59
 35 259 35 259 34 268 c 128,-1,60
 33 277 33 277 33 278 c 2,61,-1
 28 284 l 1,62,-1
 28 285 l 2,63,64
 28 295 28 295 34.5 302 c 128,-1,65
 41 309 41 309 41 320 c 2,66,-1
 41 326 l 1,67,68
 41 326 41 326 40 326 c 1,69,70
 40 326 40 326 40 327 c 0,71,72
 38 328 38 328 36.5 330.5 c 128,-1,73
 35 333 35 333 34 334 c 2,74,-1
 34 336 l 2,75,76
 34 340 34 340 42 350.5 c 128,-1,77
 50 361 50 361 52 361 c 2,78,-1
 64 361 l 2,79,80
 65 361 65 361 67 356.5 c 128,-1,81
 69 352 69 352 76 351 c 2,82,-1
 96 351 l 2,83,84
 99 351 99 351 110.5 352 c 128,-1,85
 122 353 122 353 124 353 c 0,86,87
 138 356 138 356 153 367 c 1,88,-1
 155 367 l 2,89,90
 157 367 157 367 165.5 365 c 128,-1,91
 174 363 174 363 174 361 c 2,92,-1
 174 346 l 1,93,94
 184 346 184 346 193 353 c 128,-1,95
 202 360 202 360 213 362 c 2,96,-1
 223 362 l 2,97,98
 235 362 235 362 246.5 360 c 128,-1,99
 258 358 258 358 269 358 c 2,100,-1
 275 358 l 1,101,102
 287 365 287 365 295 365 c 0,103,104
 311 365 311 365 325 357.5 c 128,-1,105
 339 350 339 350 355 349 c 1,106,-1
 355 342 l 2,107,108
 355 329 355 329 352 318 c 128,-1,109
 349 307 349 307 349 295 c 2,110,-1
 349 290 l 2,111,112
 349 285 349 285 350 279.5 c 128,-1,113
 351 274 351 274 355 273 c 1,114,-1
 355 257 l 2,115,116
 355 254 355 254 354.5 247.5 c 128,-1,117
 354 241 354 241 353 233.5 c 128,-1,118
 352 226 352 226 351 219.5 c 128,-1,119
 350 213 350 213 350 210 c 0,120,121
 348 206 348 206 346 203 c 128,-1,122
 344 200 344 200 344 195 c 256,123,124
 344 190 344 190 347 185.5 c 128,-1,125
 350 181 350 181 351 176 c 0,126,127
 351 174 351 174 352.5 163 c 128,-1,128
 354 152 354 152 354 150 c 0,129,130
 355 145 355 145 356.5 140.5 c 128,-1,131
 358 136 358 136 362 133 c 0,132,133
 365 121 365 121 365 110 c 2,134,-1
 365 107 l 1,135,-1
 348 88 l 1,136,-1
 348 86 l 2,137,138
 348 74 348 74 351 63 c 128,-1,139
 354 52 354 52 354 41 c 2,140,-1
 354 36 l 1,141,142
 349 31 349 31 340 27 c 128,-1,143
 331 23 331 23 323 23 c 0,144,145
 318 23 318 23 316 27 c 128,-1,146
 314 31 314 31 312 34 c 0,147,148
 309 36 309 36 304 37.5 c 128,-1,149
 299 39 299 39 296 39 c 2,150,-1
 293 39 l 1,151,152
 292 35 292 35 284 29.5 c 128,-1,153
 276 24 276 24 273 24 c 0,154,155
 269 24 269 24 263.5 24.5 c 128,-1,156
 258 25 258 25 255 28 c 0,157,158
 252 33 252 33 246 33.5 c 128,-1,159
 240 34 240 34 234 34 c 0,160,161
 214 34 214 34 197 26.5 c 128,-1,162
 180 19 180 19 161 19 c 2,163,-1
 156 19 l 2,164,165
 154 22 154 22 150.5 24 c 128,-1,166
 147 26 147 26 143 28 c 0,167,168
 142 29 142 29 140.5 30 c 128,-1,169
 139 31 139 31 139 31 c 1,170,-1
 139 39 l 1,171,-1
 135 39 l 2,172,173
 131 37 131 37 125 35.5 c 128,-1,174
 119 34 119 34 115 32 c 0,175,176
 113 30 113 30 109 26.5 c 128,-1,177
 105 23 105 23 101 23 c 2,4,-1
243 85 m 2,178,179
 248 85 248 85 250.5 82.5 c 128,-1,180
 253 80 253 80 258 78 c 0,181,182
 261 78 261 78 262.5 77.5 c 128,-1,183
 264 77 264 77 266 77 c 2,184,-1
 285 77 l 2,185,186
 290 77 290 77 304 78.5 c 128,-1,187
 318 80 318 80 323 80 c 1,188,-1
 323 113 l 1,189,190
 323 113 323 113 322 113.5 c 128,-1,191
 321 114 321 114 320 115 c 0,192,193
 317 116 317 116 315 116.5 c 128,-1,194
 313 117 313 117 310 117 c 0,195,196
 308 117 308 117 307.5 115 c 128,-1,197
 307 113 307 113 305 113 c 0,198,199
 304 112 304 112 302 112 c 2,200,-1
 299 112 l 2,201,202
 294 112 294 112 290.5 113.5 c 128,-1,203
 287 115 287 115 282 116 c 0,204,205
 280 116 280 116 274.5 116.5 c 128,-1,206
 269 117 269 117 262 117 c 0,207,208
 256 117 256 117 250 117.5 c 128,-1,209
 244 118 244 118 243 118 c 0,210,211
 241 118 241 118 239 118.5 c 128,-1,212
 237 119 237 119 236 119 c 256,213,214
 235 119 235 119 231.5 126 c 128,-1,215
 228 133 228 133 228 133 c 2,216,217
 228 134 228 134 226 135.5 c 128,-1,218
 224 137 224 137 224 137 c 2,219,220
 222 139 222 139 222.5 143 c 128,-1,221
 223 147 223 147 221 149 c 0,222,223
 219 152 219 152 216 152 c 1,224,-1
 216 155 l 2,225,226
 216 158 216 158 220 162 c 1,227,-1
 252 162 l 2,228,229
 262 162 262 162 270.5 162.5 c 128,-1,230
 279 163 279 163 283 163 c 0,231,232
 289 163 289 163 301 164 c 128,-1,233
 313 165 313 165 319 169 c 0,234,235
 318 172 318 172 318 174 c 0,236,237
 318 177 318 177 318 179 c 2,238,-1
 318 192 l 2,239,240
 318 193 318 193 318.5 194.5 c 128,-1,241
 319 196 319 196 319 198 c 2,242,243
 319 198 319 198 318.5 200 c 128,-1,244
 318 202 318 202 318 203 c 0,245,246
 317 205 317 205 316.5 208 c 128,-1,247
 316 211 316 211 315 212 c 2,248,-1
 301 212 l 2,249,250
 296 212 296 212 287 212.5 c 128,-1,251
 278 213 278 213 273 208 c 1,252,-1
 241 208 l 2,253,254
 238 205 238 205 236 203 c 128,-1,255
 234 201 234 201 230 201 c 256,256,257
 226 201 226 201 225 205 c 0,258,259
 224 208 224 208 221.5 209.5 c 128,-1,260
 219 211 219 211 217 213 c 2,261,-1
 213 226 l 2,262,263
 208 229 208 229 208.5 236.5 c 128,-1,264
 209 244 209 244 204 247 c 1,265,-1
 204 258 l 1,266,-1
 206 260 l 2,267,268
 216 268 216 268 226 270 c 128,-1,269
 236 272 236 272 249 272 c 0,270,271
 254 272 254 272 256.5 267.5 c 128,-1,272
 259 263 259 263 264 261 c 0,273,274
 272 261 272 261 278.5 260.5 c 128,-1,275
 285 260 285 260 292 260 c 2,276,-1
 296 260 l 1,277,278
 298 265 298 265 306 265 c 0,279,280
 315 265 315 265 315 266 c 2,281,-1
 315 284 l 2,282,283
 313 288 313 288 313 291 c 256,284,285
 313 294 313 294 312 301.5 c 128,-1,286
 311 309 311 309 311 312 c 0,287,288
 311 313 311 313 310.5 316.5 c 128,-1,289
 310 320 310 320 307 320 c 256,290,291
 304 320 304 320 301 318 c 128,-1,292
 298 316 298 316 295 315 c 0,293,294
 287 311 287 311 279 310 c 128,-1,295
 271 309 271 309 263 309 c 0,296,297
 254 309 254 309 245.5 309.5 c 128,-1,298
 237 310 237 310 229 310 c 0,299,300
 216 310 216 310 205 308 c 128,-1,301
 194 306 194 306 181 306 c 2,302,-1
 168 306 l 2,303,304
 163 307 163 307 161.5 308.5 c 128,-1,305
 160 310 160 310 156 315 c 1,306,-1
 154 315 l 2,307,308
 149 315 149 315 145 308.5 c 128,-1,309
 141 302 141 302 137 298 c 0,310,311
 137 297 137 297 135.5 295 c 128,-1,312
 134 293 134 293 134 292 c 0,313,314
 133 291 133 291 129.5 283.5 c 128,-1,315
 126 276 126 276 124 274 c 0,316,317
 122 270 122 270 121 269 c 0,318,319
 118 267 118 267 116 267 c 256,320,321
 114 267 114 267 112 265 c 0,322,323
 109 264 109 264 108 262 c 128,-1,324
 107 260 107 260 105 259 c 0,325,326
 104 257 104 257 104 254 c 256,327,328
 104 251 104 251 104 249 c 0,329,330
 104 246 104 246 105.5 244 c 128,-1,331
 107 242 107 242 107 240 c 0,332,333
 107 237 107 237 105.5 230.5 c 128,-1,334
 104 224 104 224 103 223 c 0,335,336
 103 221 103 221 103 216 c 256,337,338
 103 211 103 211 104 209 c 0,339,340
 106 203 106 203 108.5 200 c 128,-1,341
 111 197 111 197 111 191 c 0,342,343
 111 173 111 173 103 157 c 0,344,345
 102 156 102 156 100.5 152.5 c 128,-1,346
 99 149 99 149 98 147 c 0,347,348
 99 146 99 146 98 145 c 128,-1,349
 97 144 97 144 96 144 c 0,350,351
 90 138 90 138 89.5 130.5 c 128,-1,352
 89 123 89 123 87 115 c 0,353,354
 87 113 87 113 86.5 112.5 c 128,-1,355
 86 112 86 112 86 112 c 1,356,-1
 77 102 l 1,357,358
 68 99 68 99 68 89 c 0,359,360
 68 84 68 84 69 85 c 128,-1,361
 70 86 70 86 73 84 c 0,362,363
 74 84 74 84 74 83 c 1,364,365
 74 83 74 83 74 83 c 1,366,-1
 74 82 l 2,367,368
 74 81 74 81 78 81 c 0,369,370
 81 81 81 81 82.5 83 c 128,-1,371
 84 85 84 85 86 85 c 2,372,-1
 87 85 l 2,373,374
 88 85 88 85 90.5 83.5 c 128,-1,375
 93 82 93 82 93 82 c 2,376,377
 94 82 94 82 95 81.5 c 128,-1,378
 96 81 96 81 96 81 c 1,379,-1
 114 81 l 2,380,381
 116 82 116 82 117.5 84.5 c 128,-1,382
 119 87 119 87 122 87 c 1,383,-1
 122 112 l 1,384,-1
 124 116 l 2,385,386
 125 117 125 117 128 119.5 c 128,-1,387
 131 122 131 122 132 123 c 2,388,-1
 132 134 l 2,389,390
 134 136 134 136 135 140 c 128,-1,391
 136 144 136 144 136 146 c 0,392,393
 138 148 138 148 141 149 c 128,-1,394
 144 150 144 150 146 150 c 2,395,-1
 168 150 l 1,396,397
 168 149 168 149 167 147.5 c 128,-1,398
 166 146 166 146 167 144 c 2,399,-1
 171 142 l 2,400,401
 172 141 172 141 174 140 c 128,-1,402
 176 139 176 139 176 139 c 1,403,-1
 181 90 l 2,404,405
 185 89 185 89 188 89 c 0,406,407
 192 89 192 89 196 87 c 0,408,409
 201 85 201 85 200 82 c 128,-1,410
 199 79 199 79 207 79 c 2,411,-1
 211 79 l 1,412,-1
 240 85 l 1,413,-1
 243 85 l 2,178,179
147 201 m 2,414,-1
 147 204 l 1,415,416
 152 206 152 206 152 208 c 256,417,418
 152 210 152 210 152.5 215 c 128,-1,419
 153 220 153 220 153 222 c 0,420,421
 153 223 153 223 154 225 c 128,-1,422
 155 227 155 227 155 228 c 2,423,-1
 155 230 l 2,424,425
 155 235 155 235 153.5 237.5 c 128,-1,426
 152 240 152 240 152 245 c 1,427,-1
 160 245 l 1,428,429
 163 241 163 241 165 241 c 1,430,-1
 165 233 l 2,431,432
 165 231 165 231 168.5 231.5 c 128,-1,433
 172 232 172 232 172 229 c 0,434,435
 172 227 172 227 172.5 220.5 c 128,-1,436
 173 214 173 214 173 209 c 2,437,-1
 173 198 l 2,438,439
 171 195 171 195 166 191 c 128,-1,440
 161 187 161 187 156 187 c 0,441,442
 152 187 152 187 149.5 192.5 c 128,-1,443
 147 198 147 198 147 201 c 2,414,-1
EndSplineSet
EndChar

StartChar: exclam
Encoding: 33 33 2
Width: 156
GlyphClass: 1
Flags: W
LayerCount: 2
Fore
SplineSet
0 155 m 1,0,-1
 78 155 l 1,1,-1
 78 388 l 1,2,-1
 0 388 l 1,3,-1
 0 155 l 1,4,-1
 0 155 l 1,0,-1
0 0 m 1,5,-1
 78 0 l 1,6,-1
 78 77 l 1,7,-1
 0 77 l 1,8,-1
 0 0 l 1,9,-1
 0 0 l 1,5,-1
EndSplineSet
EndChar

StartChar: quotedbl
Encoding: 34 34 3
Width: 311
GlyphClass: 1
Flags: W
LayerCount: 2
Fore
SplineSet
0 233 m 1,0,-1
 77 233 l 1,1,-1
 77 388 l 1,2,-1
 0 388 l 1,3,-1
 0 233 l 1,4,-1
 0 233 l 1,0,-1
155 233 m 1,5,-1
 233 233 l 1,6,-1
 233 388 l 1,7,-1
 155 388 l 1,8,-1
 155 233 l 1,9,-1
 155 233 l 1,5,-1
EndSplineSet
EndChar

StartChar: numbersign
Encoding: 35 35 4
Width: 467
GlyphClass: 1
Flags: W
LayerCount: 2
Fore
SplineSet
311 388 m 1,0,-1
 233 388 l 1,1,-1
 233 311 l 1,2,-1
 155 311 l 1,3,-1
 155 388 l 1,4,-1
 77 388 l 1,5,-1
 77 311 l 1,6,-1
 0 311 l 1,7,-1
 0 233 l 1,8,-1
 77 233 l 1,9,-1
 77 155 l 1,10,-1
 0 155 l 1,11,-1
 0 77 l 1,12,-1
 77 77 l 1,13,-1
 77 0 l 1,14,-1
 155 0 l 1,15,-1
 155 77 l 1,16,-1
 233 77 l 1,17,-1
 233 0 l 1,18,-1
 311 0 l 1,19,-1
 311 77 l 1,20,-1
 389 77 l 1,21,-1
 389 155 l 1,22,-1
 311 155 l 1,23,-1
 311 233 l 1,24,-1
 389 233 l 1,25,-1
 389 311 l 1,26,-1
 311 311 l 1,27,-1
 311 388 l 1,28,-1
 311 388 l 1,0,-1
233 155 m 1,29,-1
 155 155 l 1,30,-1
 155 233 l 1,31,-1
 233 233 l 1,32,-1
 233 155 l 1,33,-1
 233 155 l 1,29,-1
EndSplineSet
EndChar

StartChar: dollar
Encoding: 36 36 5
Width: 467
GlyphClass: 1
Flags: W
LayerCount: 2
Fore
SplineSet
234 466 m 1,0,-1
 156 466 l 1,1,-1
 156 388 l 1,2,-1
 0 388 l 1,3,-1
 0 155 l 1,4,-1
 311 155 l 1,5,-1
 311 77 l 1,6,-1
 0 77 l 1,7,-1
 0 0 l 1,8,-1
 156 0 l 1,9,-1
 156 -78 l 1,10,-1
 234 -78 l 1,11,-1
 234 0 l 1,12,-1
 389 0 l 1,13,-1
 389 233 l 1,14,-1
 78 233 l 1,15,-1
 78 311 l 1,16,-1
 389 311 l 1,17,-1
 389 388 l 1,18,-1
 234 388 l 1,19,-1
 234 466 l 1,20,-1
 234 466 l 1,0,-1
EndSplineSet
EndChar

StartChar: percent
Encoding: 37 37 6
Width: 467
GlyphClass: 1
Flags: W
LayerCount: 2
Fore
SplineSet
0 388 m 1,0,-1
 0 233 l 1,1,-1
 156 233 l 1,2,-1
 156 388 l 1,3,-1
 0 388 l 1,4,-1
 0 388 l 1,0,-1
0 0 m 1,5,-1
 78 0 l 1,6,-1
 78 77 l 1,7,-1
 0 77 l 1,8,-1
 0 0 l 1,9,-1
 0 0 l 1,5,-1
78 77 m 1,10,-1
 156 77 l 1,11,-1
 156 155 l 1,12,-1
 78 155 l 1,13,-1
 78 77 l 1,14,-1
 78 77 l 1,10,-1
156 155 m 1,15,-1
 233 155 l 1,16,-1
 233 233 l 1,17,-1
 156 233 l 1,18,-1
 156 155 l 1,19,-1
 156 155 l 1,15,-1
233 233 m 1,20,-1
 311 233 l 1,21,-1
 311 311 l 1,22,-1
 233 311 l 1,23,-1
 233 233 l 1,24,-1
 233 233 l 1,20,-1
311 311 m 1,25,-1
 389 311 l 1,26,-1
 389 388 l 1,27,-1
 311 388 l 1,28,-1
 311 311 l 1,29,-1
 311 311 l 1,25,-1
389 0 m 1,30,-1
 389 155 l 1,31,-1
 233 155 l 1,32,-1
 233 0 l 1,33,-1
 389 0 l 1,34,-1
 389 0 l 1,30,-1
EndSplineSet
EndChar

StartChar: ampersand
Encoding: 38 38 7
Width: 467
GlyphClass: 1
Flags: W
LayerCount: 2
Fore
SplineSet
233 466 m 1,0,-1
 155 466 l 1,1,-1
 155 388 l 1,2,-1
 0 388 l 1,3,-1
 0 0 l 1,4,-1
 155 0 l 1,5,-1
 155 -78 l 1,6,-1
 233 -78 l 1,7,-1
 233 0 l 1,8,-1
 389 0 l 1,9,-1
 389 77 l 1,10,-1
 77 77 l 1,11,-1
 77 155 l 1,12,-1
 233 155 l 1,13,-1
 233 233 l 1,14,-1
 77 233 l 1,15,-1
 77 311 l 1,16,-1
 389 311 l 1,17,-1
 389 388 l 1,18,-1
 233 388 l 1,19,-1
 233 466 l 1,20,-1
 233 466 l 1,0,-1
EndSplineSet
EndChar

StartChar: quotesingle
Encoding: 39 39 8
Width: 156
GlyphClass: 1
Flags: W
LayerCount: 2
Fore
SplineSet
0 233 m 1,0,-1
 78 233 l 1,1,-1
 78 388 l 1,2,-1
 0 388 l 1,3,-1
 0 233 l 1,4,-1
 0 233 l 1,0,-1
EndSplineSet
EndChar

StartChar: parenleft
Encoding: 40 40 9
Width: 233
GlyphClass: 1
Flags: W
LayerCount: 2
Fore
SplineSet
0 77 m 1,0,-1
 78 77 l 1,1,-1
 78 311 l 1,2,-1
 0 311 l 1,3,-1
 0 77 l 1,4,-1
 0 77 l 1,0,-1
78 311 m 1,5,-1
 155 311 l 1,6,-1
 155 388 l 1,7,-1
 78 388 l 1,8,-1
 78 311 l 1,9,-1
 78 311 l 1,5,-1
155 0 m 1,10,-1
 155 77 l 1,11,-1
 78 77 l 1,12,-1
 78 0 l 1,13,-1
 155 0 l 1,14,-1
 155 0 l 1,10,-1
EndSplineSet
EndChar

StartChar: parenright
Encoding: 41 41 10
Width: 234
GlyphClass: 1
Flags: W
LayerCount: 2
Fore
SplineSet
0 0 m 1,0,-1
 78 0 l 1,1,-1
 78 77 l 1,2,-1
 0 77 l 1,3,-1
 0 0 l 1,4,-1
 0 0 l 1,0,-1
78 77 m 1,5,-1
 156 77 l 1,6,-1
 156 311 l 1,7,-1
 78 311 l 1,8,-1
 78 77 l 1,9,-1
 78 77 l 1,5,-1
0 388 m 1,10,-1
 0 311 l 1,11,-1
 78 311 l 1,12,-1
 78 388 l 1,13,-1
 0 388 l 1,14,-1
 0 388 l 1,10,-1
EndSplineSet
EndChar

StartChar: asterisk
Encoding: 42 42 11
Width: 467
GlyphClass: 1
Flags: W
LayerCount: 2
Fore
SplineSet
0 388 m 1,0,-1
 0 311 l 1,1,-1
 78 311 l 1,2,-1
 78 388 l 1,3,-1
 0 388 l 1,4,-1
 0 388 l 1,0,-1
0 155 m 1,5,-1
 78 155 l 1,6,-1
 78 233 l 1,7,-1
 0 233 l 1,8,-1
 0 155 l 1,9,-1
 0 155 l 1,5,-1
233 388 m 1,10,-1
 156 388 l 1,11,-1
 156 311 l 1,12,-1
 78 311 l 1,13,-1
 78 233 l 1,14,-1
 156 233 l 1,15,-1
 156 155 l 1,16,-1
 233 155 l 1,17,-1
 233 233 l 1,18,-1
 311 233 l 1,19,-1
 311 311 l 1,20,-1
 233 311 l 1,21,-1
 233 388 l 1,22,-1
 233 388 l 1,10,-1
311 311 m 1,23,-1
 389 311 l 1,24,-1
 389 388 l 1,25,-1
 311 388 l 1,26,-1
 311 311 l 1,27,-1
 311 311 l 1,23,-1
389 155 m 1,28,-1
 389 233 l 1,29,-1
 311 233 l 1,30,-1
 311 155 l 1,31,-1
 389 155 l 1,32,-1
 389 155 l 1,28,-1
EndSplineSet
EndChar

StartChar: plus
Encoding: 43 43 12
Width: 467
GlyphClass: 1
Flags: W
LayerCount: 2
Fore
SplineSet
233 388 m 1,0,-1
 155 388 l 1,1,-1
 155 233 l 1,2,-1
 0 233 l 1,3,-1
 0 155 l 1,4,-1
 155 155 l 1,5,-1
 155 0 l 1,6,-1
 233 0 l 1,7,-1
 233 155 l 1,8,-1
 389 155 l 1,9,-1
 389 233 l 1,10,-1
 233 233 l 1,11,-1
 233 388 l 1,12,-1
 233 388 l 1,0,-1
EndSplineSet
EndChar

StartChar: comma
Encoding: 44 44 13
Width: 156
GlyphClass: 1
Flags: W
LayerCount: 2
Fore
SplineSet
0 -78 m 1,0,-1
 78 -78 l 1,1,-1
 78 77 l 1,2,-1
 0 77 l 1,3,-1
 0 -78 l 1,4,-1
 0 -78 l 1,0,-1
EndSplineSet
EndChar

StartChar: minus
Encoding: 45 45 14
Width: 467
GlyphClass: 1
Flags: W
LayerCount: 2
Fore
SplineSet
0 155 m 1,0,-1
 389 155 l 1,1,-1
 389 233 l 1,2,-1
 0 233 l 1,3,-1
 0 155 l 1,4,-1
 0 155 l 1,0,-1
EndSplineSet
EndChar

StartChar: period
Encoding: 46 46 15
Width: 155
GlyphClass: 1
Flags: W
LayerCount: 2
Fore
SplineSet
0 0 m 1,0,-1
 77 0 l 1,1,-1
 77 77 l 1,2,-1
 0 77 l 1,3,-1
 0 0 l 1,4,-1
 0 0 l 1,0,-1
EndSplineSet
EndChar

StartChar: slash
Encoding: 47 47 16
Width: 467
GlyphClass: 1
Flags: W
LayerCount: 2
Fore
SplineSet
0 0 m 1,0,-1
 78 0 l 1,1,-1
 78 77 l 1,2,-1
 0 77 l 1,3,-1
 0 0 l 1,4,-1
 0 0 l 1,0,-1
78 77 m 1,5,-1
 156 77 l 1,6,-1
 156 155 l 1,7,-1
 78 155 l 1,8,-1
 78 77 l 1,9,-1
 78 77 l 1,5,-1
156 155 m 1,10,-1
 233 155 l 1,11,-1
 233 233 l 1,12,-1
 156 233 l 1,13,-1
 156 155 l 1,14,-1
 156 155 l 1,10,-1
233 233 m 1,15,-1
 311 233 l 1,16,-1
 311 311 l 1,17,-1
 233 311 l 1,18,-1
 233 233 l 1,19,-1
 233 233 l 1,15,-1
311 311 m 1,20,-1
 389 311 l 1,21,-1
 389 388 l 1,22,-1
 311 388 l 1,23,-1
 311 311 l 1,24,-1
 311 311 l 1,20,-1
EndSplineSet
EndChar

StartChar: zero
Encoding: 48 48 17
Width: 467
GlyphClass: 1
Flags: W
LayerCount: 2
Fore
SplineSet
0 388 m 1,0,-1
 0 0 l 1,1,-1
 389 0 l 1,2,-1
 389 388 l 1,3,-1
 0 388 l 1,4,-1
 0 388 l 1,0,-1
311 77 m 1,5,-1
 78 77 l 1,6,-1
 78 311 l 1,7,-1
 311 311 l 1,8,-1
 311 77 l 1,9,-1
 311 77 l 1,5,-1
EndSplineSet
EndChar

StartChar: one
Encoding: 49 49 18
Width: 234
GlyphClass: 1
Flags: W
LayerCount: 2
Fore
SplineSet
0 388 m 1,0,-1
 0 311 l 1,1,-1
 78 311 l 1,2,-1
 78 0 l 1,3,-1
 156 0 l 1,4,-1
 156 388 l 1,5,-1
 0 388 l 1,6,-1
 0 388 l 1,0,-1
EndSplineSet
EndChar

StartChar: two
Encoding: 50 50 19
Width: 467
GlyphClass: 1
Flags: W
LayerCount: 2
Fore
SplineSet
0 311 m 1,0,-1
 311 311 l 1,1,-1
 311 233 l 1,2,-1
 0 233 l 1,3,-1
 0 0 l 1,4,-1
 389 0 l 1,5,-1
 389 77 l 1,6,-1
 78 77 l 1,7,-1
 78 155 l 1,8,-1
 389 155 l 1,9,-1
 389 388 l 1,10,-1
 0 388 l 1,11,-1
 0 311 l 1,12,-1
 0 311 l 1,0,-1
EndSplineSet
EndChar

StartChar: three
Encoding: 51 51 20
Width: 467
GlyphClass: 1
Flags: W
LayerCount: 2
Fore
SplineSet
0 311 m 1,0,-1
 312 311 l 1,1,-1
 312 233 l 1,2,-1
 156 233 l 1,3,-1
 156 155 l 1,4,-1
 312 155 l 1,5,-1
 312 77 l 1,6,-1
 0 77 l 1,7,-1
 0 0 l 1,8,-1
 389 0 l 1,9,-1
 389 388 l 1,10,-1
 0 388 l 1,11,-1
 0 311 l 1,12,-1
 0 311 l 1,0,-1
EndSplineSet
EndChar

StartChar: four
Encoding: 52 52 21
Width: 467
GlyphClass: 1
Flags: W
LayerCount: 2
Fore
SplineSet
311 233 m 1,0,-1
 78 233 l 1,1,-1
 78 388 l 1,2,-1
 0 388 l 1,3,-1
 0 155 l 1,4,-1
 311 155 l 1,5,-1
 311 0 l 1,6,-1
 389 0 l 1,7,-1
 389 388 l 1,8,-1
 311 388 l 1,9,-1
 311 233 l 1,10,-1
 311 233 l 1,0,-1
EndSplineSet
EndChar

StartChar: five
Encoding: 53 53 22
Width: 467
GlyphClass: 1
Flags: W
LayerCount: 2
Fore
SplineSet
0 155 m 1,0,-1
 311 155 l 1,1,-1
 311 77 l 1,2,-1
 0 77 l 1,3,-1
 0 0 l 1,4,-1
 389 0 l 1,5,-1
 389 233 l 1,6,-1
 77 233 l 1,7,-1
 77 311 l 1,8,-1
 389 311 l 1,9,-1
 389 388 l 1,10,-1
 0 388 l 1,11,-1
 0 155 l 1,12,-1
 0 155 l 1,0,-1
EndSplineSet
EndChar

StartChar: six
Encoding: 54 54 23
Width: 467
GlyphClass: 1
Flags: W
LayerCount: 2
Fore
SplineSet
0 388 m 1,0,-1
 0 0 l 1,1,-1
 389 0 l 1,2,-1
 389 233 l 1,3,-1
 78 233 l 1,4,-1
 78 311 l 1,5,-1
 389 311 l 1,6,-1
 389 388 l 1,7,-1
 0 388 l 1,8,-1
 0 388 l 1,0,-1
311 155 m 1,9,-1
 311 77 l 1,10,-1
 78 77 l 1,11,-1
 78 155 l 1,12,-1
 311 155 l 1,13,-1
 311 155 l 1,9,-1
EndSplineSet
EndChar

StartChar: seven
Encoding: 55 55 24
Width: 467
GlyphClass: 1
Flags: W
LayerCount: 2
Fore
SplineSet
0 311 m 1,0,-1
 311 311 l 1,1,-1
 311 0 l 1,2,-1
 389 0 l 1,3,-1
 389 388 l 1,4,-1
 0 388 l 1,5,-1
 0 311 l 1,6,-1
 0 311 l 1,0,-1
EndSplineSet
EndChar

StartChar: eight
Encoding: 56 56 25
Width: 467
GlyphClass: 1
Flags: W
LayerCount: 2
Fore
SplineSet
0 388 m 1,0,-1
 0 0 l 1,1,-1
 389 0 l 1,2,-1
 389 388 l 1,3,-1
 0 388 l 1,4,-1
 0 388 l 1,0,-1
311 77 m 1,5,-1
 77 77 l 1,6,-1
 77 155 l 1,7,-1
 311 155 l 1,8,-1
 311 77 l 1,9,-1
 311 77 l 1,5,-1
311 233 m 1,10,-1
 77 233 l 1,11,-1
 77 311 l 1,12,-1
 311 311 l 1,13,-1
 311 233 l 1,14,-1
 311 233 l 1,10,-1
EndSplineSet
EndChar

StartChar: nine
Encoding: 57 57 26
Width: 467
GlyphClass: 1
Flags: W
LayerCount: 2
Fore
SplineSet
0 388 m 1,0,-1
 0 155 l 1,1,-1
 311 155 l 1,2,-1
 311 0 l 1,3,-1
 389 0 l 1,4,-1
 389 388 l 1,5,-1
 0 388 l 1,6,-1
 0 388 l 1,0,-1
311 233 m 1,7,-1
 78 233 l 1,8,-1
 78 311 l 1,9,-1
 311 311 l 1,10,-1
 311 233 l 1,11,-1
 311 233 l 1,7,-1
EndSplineSet
EndChar

StartChar: colon
Encoding: 58 58 27
Width: 156
GlyphClass: 1
Flags: W
LayerCount: 2
Fore
SplineSet
0 311 m 1,0,-1
 78 311 l 1,1,-1
 78 388 l 1,2,-1
 0 388 l 1,3,-1
 0 311 l 1,4,-1
 0 311 l 1,0,-1
0 0 m 1,5,-1
 78 0 l 1,6,-1
 78 77 l 1,7,-1
 0 77 l 1,8,-1
 0 0 l 1,9,-1
 0 0 l 1,5,-1
EndSplineSet
EndChar

StartChar: semicolon
Encoding: 59 59 28
Width: 155
GlyphClass: 1
Flags: W
LayerCount: 2
Fore
SplineSet
0 -78 m 1,0,-1
 77 -78 l 1,1,-1
 77 77 l 1,2,-1
 0 77 l 1,3,-1
 0 -78 l 1,4,-1
 0 -78 l 1,0,-1
0 311 m 1,5,-1
 77 311 l 1,6,-1
 77 388 l 1,7,-1
 0 388 l 1,8,-1
 0 311 l 1,9,-1
 0 311 l 1,5,-1
EndSplineSet
EndChar

StartChar: less
Encoding: 60 60 29
Width: 311
GlyphClass: 1
Flags: W
LayerCount: 2
Fore
SplineSet
0 155 m 1,0,-1
 78 155 l 1,1,-1
 78 233 l 1,2,-1
 0 233 l 1,3,-1
 0 155 l 1,4,-1
 0 155 l 1,0,-1
78 233 m 1,5,-1
 156 233 l 1,6,-1
 156 311 l 1,7,-1
 78 311 l 1,8,-1
 78 233 l 1,9,-1
 78 233 l 1,5,-1
156 311 m 1,10,-1
 233 311 l 1,11,-1
 233 388 l 1,12,-1
 156 388 l 1,13,-1
 156 311 l 1,14,-1
 156 311 l 1,10,-1
156 77 m 1,15,-1
 156 155 l 1,16,-1
 78 155 l 1,17,-1
 78 77 l 1,18,-1
 156 77 l 1,19,-1
 156 77 l 1,15,-1
233 0 m 1,20,-1
 233 77 l 1,21,-1
 156 77 l 1,22,-1
 156 0 l 1,23,-1
 233 0 l 1,24,-1
 233 0 l 1,20,-1
EndSplineSet
EndChar

StartChar: equal
Encoding: 61 61 30
Width: 467
GlyphClass: 1
Flags: W
LayerCount: 2
Fore
SplineSet
0 233 m 1,0,-1
 389 233 l 1,1,-1
 389 311 l 1,2,-1
 0 311 l 1,3,-1
 0 233 l 1,4,-1
 0 233 l 1,0,-1
0 77 m 1,5,-1
 389 77 l 1,6,-1
 389 155 l 1,7,-1
 0 155 l 1,8,-1
 0 77 l 1,9,-1
 0 77 l 1,5,-1
EndSplineSet
EndChar

StartChar: greater
Encoding: 62 62 31
Width: 311
GlyphClass: 1
Flags: W
LayerCount: 2
Fore
SplineSet
0 388 m 1,0,-1
 0 311 l 1,1,-1
 78 311 l 1,2,-1
 78 388 l 1,3,-1
 0 388 l 1,4,-1
 0 388 l 1,0,-1
78 311 m 1,5,-1
 78 233 l 1,6,-1
 156 233 l 1,7,-1
 156 311 l 1,8,-1
 78 311 l 1,9,-1
 78 311 l 1,5,-1
156 155 m 1,10,-1
 233 155 l 1,11,-1
 233 233 l 1,12,-1
 156 233 l 1,13,-1
 156 155 l 1,14,-1
 156 155 l 1,10,-1
78 77 m 1,15,-1
 156 77 l 1,16,-1
 156 155 l 1,17,-1
 78 155 l 1,18,-1
 78 77 l 1,19,-1
 78 77 l 1,15,-1
0 0 m 1,20,-1
 78 0 l 1,21,-1
 78 77 l 1,22,-1
 0 77 l 1,23,-1
 0 0 l 1,24,-1
 0 0 l 1,20,-1
EndSplineSet
EndChar

StartChar: question
Encoding: 63 63 32
Width: 467
GlyphClass: 1
Flags: W
LayerCount: 2
Fore
SplineSet
0 311 m 1,0,-1
 311 311 l 1,1,-1
 311 233 l 1,2,-1
 156 233 l 1,3,-1
 156 155 l 1,4,-1
 389 155 l 1,5,-1
 389 388 l 1,6,-1
 0 388 l 1,7,-1
 0 311 l 1,8,-1
 0 311 l 1,0,-1
156 0 m 1,9,-1
 233 0 l 1,10,-1
 233 77 l 1,11,-1
 156 77 l 1,12,-1
 156 0 l 1,13,-1
 156 0 l 1,9,-1
EndSplineSet
EndChar

StartChar: at
Encoding: 64 64 33
Width: 467
GlyphClass: 1
Flags: W
LayerCount: 2
Fore
SplineSet
0 388 m 1,0,-1
 0 0 l 1,1,-1
 78 0 l 1,2,-1
 78 311 l 1,3,-1
 311 311 l 1,4,-1
 311 233 l 1,5,-1
 155 233 l 1,6,-1
 155 0 l 1,7,-1
 389 0 l 1,8,-1
 389 388 l 1,9,-1
 0 388 l 1,10,-1
 0 388 l 1,0,-1
311 77 m 1,11,-1
 233 77 l 1,12,-1
 233 155 l 1,13,-1
 311 155 l 1,14,-1
 311 77 l 1,15,-1
 311 77 l 1,11,-1
EndSplineSet
EndChar

StartChar: A
Encoding: 65 65 34
Width: 467
GlyphClass: 1
Flags: W
LayerCount: 2
Fore
SplineSet
0 388 m 1,0,-1
 0 0 l 1,1,-1
 78 0 l 1,2,-1
 78 155 l 1,3,-1
 312 155 l 1,4,-1
 312 0 l 1,5,-1
 389 0 l 1,6,-1
 389 388 l 1,7,-1
 0 388 l 1,8,-1
 0 388 l 1,0,-1
312 233 m 1,9,-1
 78 233 l 1,10,-1
 78 311 l 1,11,-1
 312 311 l 1,12,-1
 312 233 l 1,13,-1
 312 233 l 1,9,-1
EndSplineSet
EndChar

StartChar: B
Encoding: 66 66 35
Width: 467
GlyphClass: 1
Flags: W
LayerCount: 2
Fore
SplineSet
311 233 m 1,0,-1
 78 233 l 1,1,-1
 78 311 l 1,2,-1
 311 311 l 1,3,-1
 311 388 l 1,4,-1
 0 388 l 1,5,-1
 0 0 l 1,6,-1
 311 0 l 1,7,-1
 311 77 l 1,8,-1
 78 77 l 1,9,-1
 78 155 l 1,10,-1
 311 155 l 1,11,-1
 311 77 l 1,12,-1
 389 77 l 1,13,-1
 389 311 l 1,14,-1
 311 311 l 1,15,-1
 311 233 l 1,16,-1
 311 233 l 1,0,-1
EndSplineSet
EndChar

StartChar: C
Encoding: 67 67 36
Width: 467
GlyphClass: 1
Flags: W
LayerCount: 2
Fore
SplineSet
0 388 m 1,0,-1
 0 0 l 1,1,-1
 389 0 l 1,2,-1
 389 77 l 1,3,-1
 78 77 l 1,4,-1
 78 311 l 1,5,-1
 389 311 l 1,6,-1
 389 388 l 1,7,-1
 0 388 l 1,8,-1
 0 388 l 1,0,-1
EndSplineSet
EndChar

StartChar: D
Encoding: 68 68 37
Width: 467
GlyphClass: 1
Flags: W
LayerCount: 2
Fore
SplineSet
78 311 m 1,0,-1
 312 311 l 1,1,-1
 312 388 l 1,2,-1
 0 388 l 1,3,-1
 0 0 l 1,4,-1
 312 0 l 1,5,-1
 312 77 l 1,6,-1
 78 77 l 1,7,-1
 78 311 l 1,8,-1
 78 311 l 1,0,-1
312 77 m 1,9,-1
 389 77 l 1,10,-1
 389 311 l 1,11,-1
 312 311 l 1,12,-1
 312 77 l 1,13,-1
 312 77 l 1,9,-1
EndSplineSet
EndChar

StartChar: E
Encoding: 69 69 38
Width: 467
GlyphClass: 1
Flags: W
LayerCount: 2
Fore
SplineSet
0 388 m 1,0,-1
 0 0 l 1,1,-1
 389 0 l 1,2,-1
 389 77 l 1,3,-1
 78 77 l 1,4,-1
 78 155 l 1,5,-1
 233 155 l 1,6,-1
 233 233 l 1,7,-1
 78 233 l 1,8,-1
 78 311 l 1,9,-1
 389 311 l 1,10,-1
 389 388 l 1,11,-1
 0 388 l 1,12,-1
 0 388 l 1,0,-1
EndSplineSet
EndChar

StartChar: F
Encoding: 70 70 39
Width: 467
GlyphClass: 1
Flags: W
LayerCount: 2
Fore
SplineSet
0 388 m 1,0,-1
 0 0 l 1,1,-1
 78 0 l 1,2,-1
 78 155 l 1,3,-1
 233 155 l 1,4,-1
 233 233 l 1,5,-1
 78 233 l 1,6,-1
 78 311 l 1,7,-1
 389 311 l 1,8,-1
 389 388 l 1,9,-1
 0 388 l 1,10,-1
 0 388 l 1,0,-1
EndSplineSet
EndChar

StartChar: G
Encoding: 71 71 40
Width: 467
GlyphClass: 1
Flags: W
LayerCount: 2
Fore
SplineSet
0 388 m 1,0,-1
 0 0 l 1,1,-1
 389 0 l 1,2,-1
 389 233 l 1,3,-1
 156 233 l 1,4,-1
 156 155 l 1,5,-1
 312 155 l 1,6,-1
 312 77 l 1,7,-1
 78 77 l 1,8,-1
 78 311 l 1,9,-1
 389 311 l 1,10,-1
 389 388 l 1,11,-1
 0 388 l 1,12,-1
 0 388 l 1,0,-1
EndSplineSet
EndChar

StartChar: H
Encoding: 72 72 41
Width: 467
GlyphClass: 1
Flags: W
LayerCount: 2
Fore
SplineSet
311 233 m 1,0,-1
 78 233 l 1,1,-1
 78 388 l 1,2,-1
 0 388 l 1,3,-1
 0 0 l 1,4,-1
 78 0 l 1,5,-1
 78 155 l 1,6,-1
 311 155 l 1,7,-1
 311 0 l 1,8,-1
 389 0 l 1,9,-1
 389 388 l 1,10,-1
 311 388 l 1,11,-1
 311 233 l 1,12,-1
 311 233 l 1,0,-1
EndSplineSet
EndChar

StartChar: I
Encoding: 73 73 42
Width: 467
GlyphClass: 1
Flags: W
LayerCount: 2
Fore
SplineSet
0 388 m 1,0,-1
 0 311 l 1,1,-1
 155 311 l 1,2,-1
 155 77 l 1,3,-1
 0 77 l 1,4,-1
 0 0 l 1,5,-1
 389 0 l 1,6,-1
 389 77 l 1,7,-1
 233 77 l 1,8,-1
 233 311 l 1,9,-1
 389 311 l 1,10,-1
 389 388 l 1,11,-1
 0 388 l 1,12,-1
 0 388 l 1,0,-1
EndSplineSet
EndChar

StartChar: J
Encoding: 74 74 43
Width: 467
GlyphClass: 1
Flags: W
LayerCount: 2
Fore
SplineSet
311 77 m 1,0,-1
 78 77 l 1,1,-1
 78 155 l 1,2,-1
 0 155 l 1,3,-1
 0 0 l 1,4,-1
 389 0 l 1,5,-1
 389 388 l 1,6,-1
 311 388 l 1,7,-1
 311 77 l 1,8,-1
 311 77 l 1,0,-1
EndSplineSet
EndChar

StartChar: K
Encoding: 75 75 44
Width: 467
GlyphClass: 1
Flags: W
LayerCount: 2
Fore
SplineSet
78 388 m 1,0,-1
 0 388 l 1,1,-1
 0 0 l 1,2,-1
 78 0 l 1,3,-1
 78 155 l 1,4,-1
 233 155 l 1,5,-1
 233 233 l 1,6,-1
 78 233 l 1,7,-1
 78 388 l 1,8,-1
 78 388 l 1,0,-1
311 311 m 1,9,-1
 389 311 l 1,10,-1
 389 388 l 1,11,-1
 311 388 l 1,12,-1
 311 311 l 1,13,-1
 311 311 l 1,9,-1
233 233 m 1,14,-1
 311 233 l 1,15,-1
 311 311 l 1,16,-1
 233 311 l 1,17,-1
 233 233 l 1,18,-1
 233 233 l 1,14,-1
311 77 m 1,19,-1
 311 155 l 1,20,-1
 233 155 l 1,21,-1
 233 77 l 1,22,-1
 311 77 l 1,23,-1
 311 77 l 1,19,-1
389 0 m 1,24,-1
 389 77 l 1,25,-1
 311 77 l 1,26,-1
 311 0 l 1,27,-1
 389 0 l 1,28,-1
 389 0 l 1,24,-1
EndSplineSet
EndChar

StartChar: L
Encoding: 76 76 45
Width: 467
GlyphClass: 1
Flags: W
LayerCount: 2
Fore
SplineSet
77 388 m 1,0,-1
 0 388 l 1,1,-1
 0 0 l 1,2,-1
 389 0 l 1,3,-1
 389 77 l 1,4,-1
 77 77 l 1,5,-1
 77 388 l 1,6,-1
 77 388 l 1,0,-1
EndSplineSet
EndChar

StartChar: M
Encoding: 77 77 46
Width: 467
GlyphClass: 1
Flags: W
LayerCount: 2
Fore
SplineSet
311 311 m 1,0,-1
 234 311 l 1,1,-1
 234 233 l 1,2,-1
 311 233 l 1,3,-1
 311 0 l 1,4,-1
 389 0 l 1,5,-1
 389 388 l 1,6,-1
 311 388 l 1,7,-1
 311 311 l 1,8,-1
 311 311 l 1,0,-1
78 311 m 1,9,-1
 78 388 l 1,10,-1
 0 388 l 1,11,-1
 0 0 l 1,12,-1
 78 0 l 1,13,-1
 78 233 l 1,14,-1
 156 233 l 1,15,-1
 156 311 l 1,16,-1
 78 311 l 1,17,-1
 78 311 l 1,9,-1
156 155 m 1,18,-1
 234 155 l 1,19,-1
 234 233 l 1,20,-1
 156 233 l 1,21,-1
 156 155 l 1,22,-1
 156 155 l 1,18,-1
EndSplineSet
EndChar

StartChar: N
Encoding: 78 78 47
Width: 467
GlyphClass: 1
Flags: W
LayerCount: 2
Fore
SplineSet
311 155 m 1,0,-1
 233 155 l 1,1,-1
 233 77 l 1,2,-1
 311 77 l 1,3,-1
 311 0 l 1,4,-1
 389 0 l 1,5,-1
 389 388 l 1,6,-1
 311 388 l 1,7,-1
 311 155 l 1,8,-1
 311 155 l 1,0,-1
78 311 m 1,9,-1
 78 388 l 1,10,-1
 0 388 l 1,11,-1
 0 0 l 1,12,-1
 78 0 l 1,13,-1
 78 233 l 1,14,-1
 156 233 l 1,15,-1
 156 311 l 1,16,-1
 78 311 l 1,17,-1
 78 311 l 1,9,-1
156 233 m 1,18,-1
 156 155 l 1,19,-1
 233 155 l 1,20,-1
 233 233 l 1,21,-1
 156 233 l 1,22,-1
 156 233 l 1,18,-1
EndSplineSet
EndChar

StartChar: O
Encoding: 79 79 48
Width: 467
GlyphClass: 1
Flags: W
LayerCount: 2
Fore
SplineSet
0 388 m 1,0,-1
 0 0 l 1,1,-1
 389 0 l 1,2,-1
 389 388 l 1,3,-1
 0 388 l 1,4,-1
 0 388 l 1,0,-1
311 77 m 1,5,-1
 77 77 l 1,6,-1
 77 311 l 1,7,-1
 311 311 l 1,8,-1
 311 77 l 1,9,-1
 311 77 l 1,5,-1
EndSplineSet
EndChar

StartChar: P
Encoding: 80 80 49
Width: 467
GlyphClass: 1
Flags: W
LayerCount: 2
Fore
SplineSet
311 233 m 1,0,-1
 78 233 l 1,1,-1
 78 311 l 1,2,-1
 311 311 l 1,3,-1
 311 388 l 1,4,-1
 0 388 l 1,5,-1
 0 0 l 1,6,-1
 78 0 l 1,7,-1
 78 155 l 1,8,-1
 389 155 l 1,9,-1
 389 311 l 1,10,-1
 311 311 l 1,11,-1
 311 233 l 1,12,-1
 311 233 l 1,0,-1
EndSplineSet
EndChar

StartChar: Q
Encoding: 81 81 50
Width: 467
GlyphClass: 1
Flags: W
LayerCount: 2
Fore
SplineSet
0 388 m 1,0,-1
 0 0 l 1,1,-1
 156 0 l 1,2,-1
 156 -78 l 1,3,-1
 233 -78 l 1,4,-1
 233 0 l 1,5,-1
 389 0 l 1,6,-1
 389 388 l 1,7,-1
 0 388 l 1,8,-1
 0 388 l 1,0,-1
311 77 m 1,9,-1
 233 77 l 1,10,-1
 233 155 l 1,11,-1
 156 155 l 1,12,-1
 156 77 l 1,13,-1
 78 77 l 1,14,-1
 78 311 l 1,15,-1
 311 311 l 1,16,-1
 311 77 l 1,17,-1
 311 77 l 1,9,-1
EndSplineSet
EndChar

StartChar: R
Encoding: 82 82 51
Width: 467
GlyphClass: 1
Flags: W
LayerCount: 2
Fore
SplineSet
311 233 m 1,0,-1
 78 233 l 1,1,-1
 78 311 l 1,2,-1
 311 311 l 1,3,-1
 311 388 l 1,4,-1
 0 388 l 1,5,-1
 0 0 l 1,6,-1
 78 0 l 1,7,-1
 78 155 l 1,8,-1
 233 155 l 1,9,-1
 233 77 l 1,10,-1
 311 77 l 1,11,-1
 311 155 l 1,12,-1
 389 155 l 1,13,-1
 389 311 l 1,14,-1
 311 311 l 1,15,-1
 311 233 l 1,16,-1
 311 233 l 1,0,-1
389 0 m 1,17,-1
 389 77 l 1,18,-1
 311 77 l 1,19,-1
 311 0 l 1,20,-1
 389 0 l 1,21,-1
 389 0 l 1,17,-1
EndSplineSet
EndChar

StartChar: S
Encoding: 83 83 52
Width: 467
GlyphClass: 1
Flags: W
LayerCount: 2
Fore
SplineSet
0 155 m 1,0,-1
 311 155 l 1,1,-1
 311 77 l 1,2,-1
 0 77 l 1,3,-1
 0 0 l 1,4,-1
 389 0 l 1,5,-1
 389 233 l 1,6,-1
 77 233 l 1,7,-1
 77 311 l 1,8,-1
 389 311 l 1,9,-1
 389 388 l 1,10,-1
 0 388 l 1,11,-1
 0 155 l 1,12,-1
 0 155 l 1,0,-1
EndSplineSet
EndChar

StartChar: T
Encoding: 84 84 53
Width: 467
GlyphClass: 1
Flags: W
LayerCount: 2
Fore
SplineSet
0 388 m 1,0,-1
 0 311 l 1,1,-1
 156 311 l 1,2,-1
 156 0 l 1,3,-1
 234 0 l 1,4,-1
 234 311 l 1,5,-1
 389 311 l 1,6,-1
 389 388 l 1,7,-1
 0 388 l 1,8,-1
 0 388 l 1,0,-1
EndSplineSet
EndChar

StartChar: U
Encoding: 85 85 54
Width: 467
GlyphClass: 1
Flags: W
LayerCount: 2
Fore
SplineSet
311 77 m 1,0,-1
 78 77 l 1,1,-1
 78 388 l 1,2,-1
 0 388 l 1,3,-1
 0 0 l 1,4,-1
 389 0 l 1,5,-1
 389 388 l 1,6,-1
 311 388 l 1,7,-1
 311 77 l 1,8,-1
 311 77 l 1,0,-1
EndSplineSet
EndChar

StartChar: V
Encoding: 86 86 55
Width: 467
GlyphClass: 1
Flags: W
LayerCount: 2
Fore
SplineSet
0 388 m 1,0,-1
 0 155 l 1,1,-1
 77 155 l 1,2,-1
 77 388 l 1,3,-1
 0 388 l 1,4,-1
 0 388 l 1,0,-1
311 155 m 1,5,-1
 389 155 l 1,6,-1
 389 388 l 1,7,-1
 311 388 l 1,8,-1
 311 155 l 1,9,-1
 311 155 l 1,5,-1
77 155 m 1,10,-1
 77 77 l 1,11,-1
 155 77 l 1,12,-1
 155 155 l 1,13,-1
 77 155 l 1,14,-1
 77 155 l 1,10,-1
155 0 m 1,15,-1
 233 0 l 1,16,-1
 233 77 l 1,17,-1
 155 77 l 1,18,-1
 155 0 l 1,19,-1
 155 0 l 1,15,-1
233 77 m 1,20,-1
 311 77 l 1,21,-1
 311 155 l 1,22,-1
 233 155 l 1,23,-1
 233 77 l 1,24,-1
 233 77 l 1,20,-1
EndSplineSet
EndChar

StartChar: W
Encoding: 87 87 56
Width: 467
GlyphClass: 1
Flags: W
LayerCount: 2
Fore
SplineSet
78 388 m 1,0,-1
 0 388 l 1,1,-1
 0 0 l 1,2,-1
 78 0 l 1,3,-1
 78 77 l 1,4,-1
 156 77 l 1,5,-1
 156 155 l 1,6,-1
 78 155 l 1,7,-1
 78 388 l 1,8,-1
 78 388 l 1,0,-1
311 155 m 1,9,-1
 234 155 l 1,10,-1
 234 77 l 1,11,-1
 311 77 l 1,12,-1
 311 0 l 1,13,-1
 389 0 l 1,14,-1
 389 388 l 1,15,-1
 311 388 l 1,16,-1
 311 155 l 1,17,-1
 311 155 l 1,9,-1
156 233 m 1,18,-1
 156 155 l 1,19,-1
 234 155 l 1,20,-1
 234 233 l 1,21,-1
 156 233 l 1,22,-1
 156 233 l 1,18,-1
EndSplineSet
EndChar

StartChar: X
Encoding: 88 88 57
Width: 467
GlyphClass: 1
Flags: W
LayerCount: 2
Fore
SplineSet
0 388 m 1,0,-1
 0 311 l 1,1,-1
 78 311 l 1,2,-1
 78 388 l 1,3,-1
 0 388 l 1,4,-1
 0 388 l 1,0,-1
78 311 m 1,5,-1
 78 233 l 1,6,-1
 156 233 l 1,7,-1
 156 311 l 1,8,-1
 78 311 l 1,9,-1
 78 311 l 1,5,-1
156 155 m 1,10,-1
 233 155 l 1,11,-1
 233 233 l 1,12,-1
 156 233 l 1,13,-1
 156 155 l 1,14,-1
 156 155 l 1,10,-1
311 77 m 1,15,-1
 311 155 l 1,16,-1
 233 155 l 1,17,-1
 233 77 l 1,18,-1
 311 77 l 1,19,-1
 311 77 l 1,15,-1
389 0 m 1,20,-1
 389 77 l 1,21,-1
 311 77 l 1,22,-1
 311 0 l 1,23,-1
 389 0 l 1,24,-1
 389 0 l 1,20,-1
0 0 m 1,25,-1
 78 0 l 1,26,-1
 78 77 l 1,27,-1
 0 77 l 1,28,-1
 0 0 l 1,29,-1
 0 0 l 1,25,-1
78 77 m 1,30,-1
 156 77 l 1,31,-1
 156 155 l 1,32,-1
 78 155 l 1,33,-1
 78 77 l 1,34,-1
 78 77 l 1,30,-1
233 233 m 1,35,-1
 311 233 l 1,36,-1
 311 311 l 1,37,-1
 233 311 l 1,38,-1
 233 233 l 1,39,-1
 233 233 l 1,35,-1
311 311 m 1,40,-1
 389 311 l 1,41,-1
 389 388 l 1,42,-1
 311 388 l 1,43,-1
 311 311 l 1,44,-1
 311 311 l 1,40,-1
EndSplineSet
EndChar

StartChar: Y
Encoding: 89 89 58
Width: 467
GlyphClass: 1
Flags: W
LayerCount: 2
Fore
SplineSet
311 233 m 1,0,-1
 77 233 l 1,1,-1
 77 388 l 1,2,-1
 0 388 l 1,3,-1
 0 155 l 1,4,-1
 155 155 l 1,5,-1
 155 0 l 1,6,-1
 233 0 l 1,7,-1
 233 155 l 1,8,-1
 389 155 l 1,9,-1
 389 388 l 1,10,-1
 311 388 l 1,11,-1
 311 233 l 1,12,-1
 311 233 l 1,0,-1
EndSplineSet
EndChar

StartChar: Z
Encoding: 90 90 59
Width: 467
GlyphClass: 1
Flags: W
LayerCount: 2
Fore
SplineSet
0 311 m 1,0,-1
 234 311 l 1,1,-1
 234 233 l 1,2,-1
 311 233 l 1,3,-1
 311 311 l 1,4,-1
 389 311 l 1,5,-1
 389 388 l 1,6,-1
 0 388 l 1,7,-1
 0 311 l 1,8,-1
 0 311 l 1,0,-1
156 155 m 1,9,-1
 234 155 l 1,10,-1
 234 233 l 1,11,-1
 156 233 l 1,12,-1
 156 155 l 1,13,-1
 156 155 l 1,9,-1
78 77 m 1,14,-1
 0 77 l 1,15,-1
 0 0 l 1,16,-1
 389 0 l 1,17,-1
 389 77 l 1,18,-1
 156 77 l 1,19,-1
 156 155 l 1,20,-1
 78 155 l 1,21,-1
 78 77 l 1,22,-1
 78 77 l 1,14,-1
EndSplineSet
EndChar

StartChar: bracketleft
Encoding: 91 91 60
Width: 234
GlyphClass: 1
Flags: W
LayerCount: 2
Fore
SplineSet
0 388 m 1,0,-1
 0 0 l 1,1,-1
 156 0 l 1,2,-1
 156 77 l 1,3,-1
 78 77 l 1,4,-1
 78 311 l 1,5,-1
 156 311 l 1,6,-1
 156 388 l 1,7,-1
 0 388 l 1,8,-1
 0 388 l 1,0,-1
EndSplineSet
EndChar

StartChar: backslash
Encoding: 92 92 61
Width: 467
GlyphClass: 1
Flags: W
LayerCount: 2
Fore
SplineSet
0 388 m 1,0,-1
 0 311 l 1,1,-1
 78 311 l 1,2,-1
 78 388 l 1,3,-1
 0 388 l 1,4,-1
 0 388 l 1,0,-1
78 311 m 1,5,-1
 78 233 l 1,6,-1
 156 233 l 1,7,-1
 156 311 l 1,8,-1
 78 311 l 1,9,-1
 78 311 l 1,5,-1
156 233 m 1,10,-1
 156 155 l 1,11,-1
 233 155 l 1,12,-1
 233 233 l 1,13,-1
 156 233 l 1,14,-1
 156 233 l 1,10,-1
233 155 m 1,15,-1
 233 77 l 1,16,-1
 311 77 l 1,17,-1
 311 155 l 1,18,-1
 233 155 l 1,19,-1
 233 155 l 1,15,-1
311 0 m 1,20,-1
 389 0 l 1,21,-1
 389 77 l 1,22,-1
 311 77 l 1,23,-1
 311 0 l 1,24,-1
 311 0 l 1,20,-1
EndSplineSet
EndChar

StartChar: bracketright
Encoding: 93 93 62
Width: 233
GlyphClass: 1
Flags: W
LayerCount: 2
Fore
SplineSet
0 388 m 1,0,-1
 0 311 l 1,1,-1
 77 311 l 1,2,-1
 77 77 l 1,3,-1
 0 77 l 1,4,-1
 0 0 l 1,5,-1
 155 0 l 1,6,-1
 155 388 l 1,7,-1
 0 388 l 1,8,-1
 0 388 l 1,0,-1
EndSplineSet
EndChar

StartChar: asciicircum
Encoding: 94 94 63
Width: 311
GlyphClass: 1
Flags: W
LayerCount: 2
Fore
SplineSet
0 233 m 1,0,-1
 78 233 l 1,1,-1
 78 311 l 1,2,-1
 0 311 l 1,3,-1
 0 233 l 1,4,-1
 0 233 l 1,0,-1
78 388 m 1,5,-1
 78 311 l 1,6,-1
 156 311 l 1,7,-1
 156 388 l 1,8,-1
 78 388 l 1,9,-1
 78 388 l 1,5,-1
156 233 m 1,10,-1
 233 233 l 1,11,-1
 233 311 l 1,12,-1
 156 311 l 1,13,-1
 156 233 l 1,14,-1
 156 233 l 1,10,-1
EndSplineSet
EndChar

StartChar: underscore
Encoding: 95 95 64
Width: 467
GlyphClass: 1
Flags: W
LayerCount: 2
Fore
SplineSet
0 -156 m 1,0,-1
 389 -156 l 1,1,-1
 389 -78 l 1,2,-1
 0 -78 l 1,3,-1
 0 -156 l 1,4,-1
 0 -156 l 1,0,-1
EndSplineSet
EndChar

StartChar: grave
Encoding: 96 96 65
Width: 156
GlyphClass: 1
Flags: W
LayerCount: 2
Fore
SplineSet
0 233 m 1,0,-1
 78 233 l 1,1,-1
 78 388 l 1,2,-1
 0 388 l 1,3,-1
 0 233 l 1,4,-1
 0 233 l 1,0,-1
EndSplineSet
EndChar

StartChar: a
Encoding: 97 97 66
Width: 467
GlyphClass: 1
Flags: W
LayerCount: 2
Fore
SplineSet
0 388 m 1,0,-1
 0 0 l 1,1,-1
 78 0 l 1,2,-1
 78 155 l 1,3,-1
 311 155 l 1,4,-1
 311 0 l 1,5,-1
 389 0 l 1,6,-1
 389 388 l 1,7,-1
 0 388 l 1,8,-1
 0 388 l 1,0,-1
311 233 m 1,9,-1
 78 233 l 1,10,-1
 78 311 l 1,11,-1
 311 311 l 1,12,-1
 311 233 l 1,13,-1
 311 233 l 1,9,-1
EndSplineSet
EndChar

StartChar: b
Encoding: 98 98 67
Width: 467
GlyphClass: 1
Flags: W
LayerCount: 2
Fore
SplineSet
0 388 m 1,0,-1
 0 0 l 1,1,-1
 389 0 l 1,2,-1
 389 155 l 1,3,-1
 311 155 l 1,4,-1
 311 77 l 1,5,-1
 78 77 l 1,6,-1
 78 155 l 1,7,-1
 311 155 l 1,8,-1
 311 233 l 1,9,-1
 78 233 l 1,10,-1
 78 311 l 1,11,-1
 311 311 l 1,12,-1
 311 233 l 1,13,-1
 389 233 l 1,14,-1
 389 388 l 1,15,-1
 0 388 l 1,16,-1
 0 388 l 1,0,-1
EndSplineSet
EndChar

StartChar: c
Encoding: 99 99 68
Width: 467
GlyphClass: 1
Flags: W
LayerCount: 2
Fore
SplineSet
0 388 m 1,0,-1
 0 0 l 1,1,-1
 389 0 l 1,2,-1
 389 77 l 1,3,-1
 77 77 l 1,4,-1
 77 311 l 1,5,-1
 389 311 l 1,6,-1
 389 388 l 1,7,-1
 0 388 l 1,8,-1
 0 388 l 1,0,-1
EndSplineSet
EndChar

StartChar: d
Encoding: 100 100 69
Width: 467
GlyphClass: 1
Flags: W
LayerCount: 2
Fore
SplineSet
78 311 m 1,0,-1
 311 311 l 1,1,-1
 311 388 l 1,2,-1
 0 388 l 1,3,-1
 0 0 l 1,4,-1
 311 0 l 1,5,-1
 311 77 l 1,6,-1
 78 77 l 1,7,-1
 78 311 l 1,8,-1
 78 311 l 1,0,-1
311 77 m 1,9,-1
 389 77 l 1,10,-1
 389 311 l 1,11,-1
 311 311 l 1,12,-1
 311 77 l 1,13,-1
 311 77 l 1,9,-1
EndSplineSet
EndChar

StartChar: e
Encoding: 101 101 70
Width: 467
GlyphClass: 1
Flags: W
LayerCount: 2
Fore
SplineSet
0 388 m 1,0,-1
 0 0 l 1,1,-1
 389 0 l 1,2,-1
 389 77 l 1,3,-1
 78 77 l 1,4,-1
 78 155 l 1,5,-1
 233 155 l 1,6,-1
 233 233 l 1,7,-1
 78 233 l 1,8,-1
 78 311 l 1,9,-1
 389 311 l 1,10,-1
 389 388 l 1,11,-1
 0 388 l 1,12,-1
 0 388 l 1,0,-1
EndSplineSet
EndChar

StartChar: f
Encoding: 102 102 71
Width: 467
GlyphClass: 1
Flags: W
LayerCount: 2
Fore
SplineSet
0 388 m 1,0,-1
 0 0 l 1,1,-1
 78 0 l 1,2,-1
 78 155 l 1,3,-1
 233 155 l 1,4,-1
 233 233 l 1,5,-1
 78 233 l 1,6,-1
 78 311 l 1,7,-1
 389 311 l 1,8,-1
 389 388 l 1,9,-1
 0 388 l 1,10,-1
 0 388 l 1,0,-1
EndSplineSet
EndChar

StartChar: g
Encoding: 103 103 72
Width: 467
GlyphClass: 1
Flags: W
LayerCount: 2
Fore
SplineSet
0 388 m 1,0,-1
 0 0 l 1,1,-1
 389 0 l 1,2,-1
 389 233 l 1,3,-1
 155 233 l 1,4,-1
 155 155 l 1,5,-1
 311 155 l 1,6,-1
 311 77 l 1,7,-1
 77 77 l 1,8,-1
 77 311 l 1,9,-1
 389 311 l 1,10,-1
 389 388 l 1,11,-1
 0 388 l 1,12,-1
 0 388 l 1,0,-1
EndSplineSet
EndChar

StartChar: h
Encoding: 104 104 73
Width: 467
GlyphClass: 1
Flags: W
LayerCount: 2
Fore
SplineSet
311 233 m 1,0,-1
 78 233 l 1,1,-1
 78 388 l 1,2,-1
 0 388 l 1,3,-1
 0 0 l 1,4,-1
 78 0 l 1,5,-1
 78 155 l 1,6,-1
 311 155 l 1,7,-1
 311 0 l 1,8,-1
 389 0 l 1,9,-1
 389 388 l 1,10,-1
 311 388 l 1,11,-1
 311 233 l 1,12,-1
 311 233 l 1,0,-1
EndSplineSet
EndChar

StartChar: i
Encoding: 105 105 74
Width: 156
GlyphClass: 1
Flags: W
LayerCount: 2
Fore
SplineSet
0 0 m 1,0,-1
 78 0 l 1,1,-1
 78 388 l 1,2,-1
 0 388 l 1,3,-1
 0 0 l 1,4,-1
 0 0 l 1,0,-1
EndSplineSet
EndChar

StartChar: j
Encoding: 106 106 75
Width: 466
GlyphClass: 1
Flags: W
LayerCount: 2
Fore
SplineSet
311 77 m 1,0,-1
 77 77 l 1,1,-1
 77 155 l 1,2,-1
 0 155 l 1,3,-1
 0 0 l 1,4,-1
 388 0 l 1,5,-1
 388 388 l 1,6,-1
 311 388 l 1,7,-1
 311 77 l 1,8,-1
 311 77 l 1,0,-1
EndSplineSet
EndChar

StartChar: k
Encoding: 107 107 76
Width: 467
GlyphClass: 1
Flags: W
LayerCount: 2
Fore
SplineSet
78 388 m 1,0,-1
 0 388 l 1,1,-1
 0 0 l 1,2,-1
 78 0 l 1,3,-1
 78 155 l 1,4,-1
 234 155 l 1,5,-1
 234 233 l 1,6,-1
 78 233 l 1,7,-1
 78 388 l 1,8,-1
 78 388 l 1,0,-1
311 311 m 1,9,-1
 389 311 l 1,10,-1
 389 388 l 1,11,-1
 311 388 l 1,12,-1
 311 311 l 1,13,-1
 311 311 l 1,9,-1
234 233 m 1,14,-1
 311 233 l 1,15,-1
 311 311 l 1,16,-1
 234 311 l 1,17,-1
 234 233 l 1,18,-1
 234 233 l 1,14,-1
311 77 m 1,19,-1
 311 155 l 1,20,-1
 234 155 l 1,21,-1
 234 77 l 1,22,-1
 311 77 l 1,23,-1
 311 77 l 1,19,-1
389 0 m 1,24,-1
 389 77 l 1,25,-1
 311 77 l 1,26,-1
 311 0 l 1,27,-1
 389 0 l 1,28,-1
 389 0 l 1,24,-1
EndSplineSet
EndChar

StartChar: l
Encoding: 108 108 77
Width: 467
GlyphClass: 1
Flags: W
LayerCount: 2
Fore
SplineSet
78 388 m 1,0,-1
 0 388 l 1,1,-1
 0 0 l 1,2,-1
 311 0 l 1,3,-1
 311 77 l 1,4,-1
 78 77 l 1,5,-1
 78 388 l 1,6,-1
 78 388 l 1,0,-1
EndSplineSet
EndChar

StartChar: m
Encoding: 109 109 78
Width: 466
GlyphClass: 1
Flags: W
LayerCount: 2
Fore
SplineSet
0 388 m 1,0,-1
 0 0 l 1,1,-1
 77 0 l 1,2,-1
 77 311 l 1,3,-1
 155 311 l 1,4,-1
 155 0 l 1,5,-1
 233 0 l 1,6,-1
 233 311 l 1,7,-1
 311 311 l 1,8,-1
 311 0 l 1,9,-1
 388 0 l 1,10,-1
 388 388 l 1,11,-1
 0 388 l 1,12,-1
 0 388 l 1,0,-1
EndSplineSet
EndChar

StartChar: n
Encoding: 110 110 79
Width: 467
GlyphClass: 1
Flags: W
LayerCount: 2
Fore
SplineSet
0 388 m 1,0,-1
 0 0 l 1,1,-1
 78 0 l 1,2,-1
 78 311 l 1,3,-1
 311 311 l 1,4,-1
 311 0 l 1,5,-1
 389 0 l 1,6,-1
 389 388 l 1,7,-1
 0 388 l 1,8,-1
 0 388 l 1,0,-1
EndSplineSet
EndChar

StartChar: o
Encoding: 111 111 80
Width: 467
GlyphClass: 1
Flags: W
LayerCount: 2
Fore
SplineSet
0 388 m 1,0,-1
 0 0 l 1,1,-1
 389 0 l 1,2,-1
 389 388 l 1,3,-1
 0 388 l 1,4,-1
 0 388 l 1,0,-1
311 77 m 1,5,-1
 78 77 l 1,6,-1
 78 311 l 1,7,-1
 311 311 l 1,8,-1
 311 77 l 1,9,-1
 311 77 l 1,5,-1
EndSplineSet
EndChar

StartChar: p
Encoding: 112 112 81
Width: 467
GlyphClass: 1
Flags: W
LayerCount: 2
Fore
SplineSet
0 388 m 1,0,-1
 0 0 l 1,1,-1
 78 0 l 1,2,-1
 78 155 l 1,3,-1
 389 155 l 1,4,-1
 389 388 l 1,5,-1
 0 388 l 1,6,-1
 0 388 l 1,0,-1
311 233 m 1,7,-1
 78 233 l 1,8,-1
 78 311 l 1,9,-1
 311 311 l 1,10,-1
 311 233 l 1,11,-1
 311 233 l 1,7,-1
EndSplineSet
EndChar

StartChar: q
Encoding: 113 113 82
Width: 467
GlyphClass: 1
Flags: W
LayerCount: 2
Fore
SplineSet
0 388 m 1,0,-1
 0 0 l 1,1,-1
 155 0 l 1,2,-1
 155 -78 l 1,3,-1
 233 -78 l 1,4,-1
 233 0 l 1,5,-1
 389 0 l 1,6,-1
 389 388 l 1,7,-1
 0 388 l 1,8,-1
 0 388 l 1,0,-1
311 77 m 1,9,-1
 233 77 l 1,10,-1
 233 155 l 1,11,-1
 155 155 l 1,12,-1
 155 77 l 1,13,-1
 77 77 l 1,14,-1
 77 311 l 1,15,-1
 311 311 l 1,16,-1
 311 77 l 1,17,-1
 311 77 l 1,9,-1
EndSplineSet
EndChar

StartChar: r
Encoding: 114 114 83
Width: 467
GlyphClass: 1
Flags: W
LayerCount: 2
Fore
SplineSet
389 0 m 1,0,-1
 389 77 l 1,1,-1
 311 77 l 1,2,-1
 311 0 l 1,3,-1
 389 0 l 1,4,-1
 389 0 l 1,0,-1
0 388 m 1,5,-1
 0 0 l 1,6,-1
 78 0 l 1,7,-1
 78 155 l 1,8,-1
 234 155 l 1,9,-1
 234 77 l 1,10,-1
 311 77 l 1,11,-1
 311 155 l 1,12,-1
 389 155 l 1,13,-1
 389 388 l 1,14,-1
 0 388 l 1,15,-1
 0 388 l 1,5,-1
311 233 m 1,16,-1
 78 233 l 1,17,-1
 78 311 l 1,18,-1
 311 311 l 1,19,-1
 311 233 l 1,20,-1
 311 233 l 1,16,-1
EndSplineSet
EndChar

StartChar: s
Encoding: 115 115 84
Width: 467
GlyphClass: 1
Flags: W
LayerCount: 2
Fore
SplineSet
0 155 m 1,0,-1
 311 155 l 1,1,-1
 311 77 l 1,2,-1
 0 77 l 1,3,-1
 0 0 l 1,4,-1
 389 0 l 1,5,-1
 389 233 l 1,6,-1
 78 233 l 1,7,-1
 78 311 l 1,8,-1
 389 311 l 1,9,-1
 389 388 l 1,10,-1
 0 388 l 1,11,-1
 0 155 l 1,12,-1
 0 155 l 1,0,-1
EndSplineSet
EndChar

StartChar: t
Encoding: 116 116 85
Width: 467
GlyphClass: 1
Flags: W
LayerCount: 2
Fore
SplineSet
0 388 m 1,0,-1
 0 311 l 1,1,-1
 155 311 l 1,2,-1
 155 0 l 1,3,-1
 233 0 l 1,4,-1
 233 311 l 1,5,-1
 389 311 l 1,6,-1
 389 388 l 1,7,-1
 0 388 l 1,8,-1
 0 388 l 1,0,-1
EndSplineSet
EndChar

StartChar: u
Encoding: 117 117 86
Width: 467
GlyphClass: 1
Flags: W
LayerCount: 2
Fore
SplineSet
311 77 m 1,0,-1
 78 77 l 1,1,-1
 78 388 l 1,2,-1
 0 388 l 1,3,-1
 0 0 l 1,4,-1
 389 0 l 1,5,-1
 389 388 l 1,6,-1
 311 388 l 1,7,-1
 311 77 l 1,8,-1
 311 77 l 1,0,-1
EndSplineSet
EndChar

StartChar: v
Encoding: 118 118 87
Width: 467
GlyphClass: 1
Flags: W
LayerCount: 2
Fore
SplineSet
0 388 m 1,0,-1
 0 155 l 1,1,-1
 78 155 l 1,2,-1
 78 388 l 1,3,-1
 0 388 l 1,4,-1
 0 388 l 1,0,-1
311 155 m 1,5,-1
 389 155 l 1,6,-1
 389 388 l 1,7,-1
 311 388 l 1,8,-1
 311 155 l 1,9,-1
 311 155 l 1,5,-1
78 155 m 1,10,-1
 78 77 l 1,11,-1
 156 77 l 1,12,-1
 156 155 l 1,13,-1
 78 155 l 1,14,-1
 78 155 l 1,10,-1
156 0 m 1,15,-1
 233 0 l 1,16,-1
 233 77 l 1,17,-1
 156 77 l 1,18,-1
 156 0 l 1,19,-1
 156 0 l 1,15,-1
233 77 m 1,20,-1
 311 77 l 1,21,-1
 311 155 l 1,22,-1
 233 155 l 1,23,-1
 233 77 l 1,24,-1
 233 77 l 1,20,-1
EndSplineSet
EndChar

StartChar: w
Encoding: 119 119 88
Width: 467
GlyphClass: 1
Flags: W
LayerCount: 2
Fore
SplineSet
311 77 m 1,0,-1
 233 77 l 1,1,-1
 233 388 l 1,2,-1
 155 388 l 1,3,-1
 155 77 l 1,4,-1
 77 77 l 1,5,-1
 77 388 l 1,6,-1
 0 388 l 1,7,-1
 0 0 l 1,8,-1
 389 0 l 1,9,-1
 389 388 l 1,10,-1
 311 388 l 1,11,-1
 311 77 l 1,12,-1
 311 77 l 1,0,-1
EndSplineSet
EndChar

StartChar: x
Encoding: 120 120 89
Width: 467
GlyphClass: 1
Flags: W
LayerCount: 2
Fore
SplineSet
0 388 m 1,0,-1
 0 311 l 1,1,-1
 78 311 l 1,2,-1
 78 388 l 1,3,-1
 0 388 l 1,4,-1
 0 388 l 1,0,-1
78 311 m 1,5,-1
 78 233 l 1,6,-1
 156 233 l 1,7,-1
 156 311 l 1,8,-1
 78 311 l 1,9,-1
 78 311 l 1,5,-1
156 155 m 1,10,-1
 234 155 l 1,11,-1
 234 233 l 1,12,-1
 156 233 l 1,13,-1
 156 155 l 1,14,-1
 156 155 l 1,10,-1
311 77 m 1,15,-1
 311 155 l 1,16,-1
 234 155 l 1,17,-1
 234 77 l 1,18,-1
 311 77 l 1,19,-1
 311 77 l 1,15,-1
389 0 m 1,20,-1
 389 77 l 1,21,-1
 311 77 l 1,22,-1
 311 0 l 1,23,-1
 389 0 l 1,24,-1
 389 0 l 1,20,-1
0 0 m 1,25,-1
 78 0 l 1,26,-1
 78 77 l 1,27,-1
 0 77 l 1,28,-1
 0 0 l 1,29,-1
 0 0 l 1,25,-1
78 77 m 1,30,-1
 156 77 l 1,31,-1
 156 155 l 1,32,-1
 78 155 l 1,33,-1
 78 77 l 1,34,-1
 78 77 l 1,30,-1
234 233 m 1,35,-1
 311 233 l 1,36,-1
 311 311 l 1,37,-1
 234 311 l 1,38,-1
 234 233 l 1,39,-1
 234 233 l 1,35,-1
311 311 m 1,40,-1
 389 311 l 1,41,-1
 389 388 l 1,42,-1
 311 388 l 1,43,-1
 311 311 l 1,44,-1
 311 311 l 1,40,-1
EndSplineSet
EndChar

StartChar: y
Encoding: 121 121 90
Width: 467
GlyphClass: 1
Flags: W
LayerCount: 2
Fore
SplineSet
0 388 m 1,0,-1
 0 311 l 1,1,-1
 78 311 l 1,2,-1
 78 388 l 1,3,-1
 0 388 l 1,4,-1
 0 388 l 1,0,-1
78 311 m 1,5,-1
 78 233 l 1,6,-1
 156 233 l 1,7,-1
 156 311 l 1,8,-1
 78 311 l 1,9,-1
 78 311 l 1,5,-1
311 311 m 1,10,-1
 389 311 l 1,11,-1
 389 388 l 1,12,-1
 311 388 l 1,13,-1
 311 311 l 1,14,-1
 311 311 l 1,10,-1
233 233 m 1,15,-1
 311 233 l 1,16,-1
 311 311 l 1,17,-1
 233 311 l 1,18,-1
 233 233 l 1,19,-1
 233 233 l 1,15,-1
156 0 m 1,20,-1
 233 0 l 1,21,-1
 233 233 l 1,22,-1
 156 233 l 1,23,-1
 156 0 l 1,24,-1
 156 0 l 1,20,-1
EndSplineSet
EndChar

StartChar: z
Encoding: 122 122 91
Width: 467
GlyphClass: 1
Flags: W
LayerCount: 2
Fore
SplineSet
0 311 m 1,0,-1
 233 311 l 1,1,-1
 233 233 l 1,2,-1
 311 233 l 1,3,-1
 311 311 l 1,4,-1
 389 311 l 1,5,-1
 389 388 l 1,6,-1
 0 388 l 1,7,-1
 0 311 l 1,8,-1
 0 311 l 1,0,-1
156 155 m 1,9,-1
 233 155 l 1,10,-1
 233 233 l 1,11,-1
 156 233 l 1,12,-1
 156 155 l 1,13,-1
 156 155 l 1,9,-1
78 77 m 1,14,-1
 0 77 l 1,15,-1
 0 0 l 1,16,-1
 389 0 l 1,17,-1
 389 77 l 1,18,-1
 156 77 l 1,19,-1
 156 155 l 1,20,-1
 78 155 l 1,21,-1
 78 77 l 1,22,-1
 78 77 l 1,14,-1
EndSplineSet
EndChar

StartChar: braceleft
Encoding: 123 123 92
Width: 311
GlyphClass: 1
Flags: W
LayerCount: 2
Fore
SplineSet
77 388 m 1,0,-1
 77 233 l 1,1,-1
 0 233 l 1,2,-1
 0 155 l 1,3,-1
 77 155 l 1,4,-1
 77 0 l 1,5,-1
 233 0 l 1,6,-1
 233 77 l 1,7,-1
 155 77 l 1,8,-1
 155 311 l 1,9,-1
 233 311 l 1,10,-1
 233 388 l 1,11,-1
 77 388 l 1,12,-1
 77 388 l 1,0,-1
EndSplineSet
EndChar

StartChar: bar
Encoding: 124 124 93
Width: 156
GlyphClass: 1
Flags: W
LayerCount: 2
Fore
SplineSet
0 -78 m 1,0,-1
 78 -78 l 1,1,-1
 78 466 l 1,2,-1
 0 466 l 1,3,-1
 0 -78 l 1,4,-1
 0 -78 l 1,0,-1
EndSplineSet
EndChar

StartChar: braceright
Encoding: 125 125 94
Width: 312
GlyphClass: 1
Flags: W
LayerCount: 2
Fore
SplineSet
156 388 m 1,0,-1
 0 388 l 1,1,-1
 0 311 l 1,2,-1
 78 311 l 1,3,-1
 78 77 l 1,4,-1
 0 77 l 1,5,-1
 0 0 l 1,6,-1
 156 0 l 1,7,-1
 156 155 l 1,8,-1
 234 155 l 1,9,-1
 234 233 l 1,10,-1
 156 233 l 1,11,-1
 156 388 l 1,12,-1
 156 388 l 1,0,-1
EndSplineSet
EndChar

StartChar: asciitilde
Encoding: 126 126 95
Width: 467
GlyphClass: 1
Flags: W
LayerCount: 2
Fore
SplineSet
312 155 m 1,0,-1
 234 155 l 1,1,-1
 234 311 l 1,2,-1
 0 311 l 1,3,-1
 0 155 l 1,4,-1
 78 155 l 1,5,-1
 78 233 l 1,6,-1
 156 233 l 1,7,-1
 156 77 l 1,8,-1
 389 77 l 1,9,-1
 389 233 l 1,10,-1
 312 233 l 1,11,-1
 312 155 l 1,12,-1
 312 155 l 1,0,-1
EndSplineSet
EndChar

StartChar: .0127
Encoding: 127 127 96
Width: 467
GlyphClass: 1
Flags: W
LayerCount: 2
Fore
SplineSet
0 388 m 1,0,-1
 0 0 l 1,1,-1
 389 0 l 1,2,-1
 389 388 l 1,3,-1
 0 388 l 1,4,-1
 0 388 l 1,0,-1
311 77 m 1,5,-1
 78 77 l 1,6,-1
 78 311 l 1,7,-1
 311 311 l 1,8,-1
 311 77 l 1,9,-1
 311 77 l 1,5,-1
233 155 m 1,10,-1
 233 233 l 1,11,-1
 156 233 l 1,12,-1
 156 155 l 1,13,-1
 233 155 l 1,14,-1
 233 155 l 1,10,-1
EndSplineSet
EndChar

StartChar: .0128
Encoding: 128 128 97
Width: 467
GlyphClass: 1
Flags: W
LayerCount: 2
Fore
SplineSet
0 388 m 1,0,-1
 0 0 l 1,1,-1
 389 0 l 1,2,-1
 389 388 l 1,3,-1
 0 388 l 1,4,-1
 0 388 l 1,0,-1
311 77 m 1,5,-1
 78 77 l 1,6,-1
 78 311 l 1,7,-1
 311 311 l 1,8,-1
 311 77 l 1,9,-1
 311 77 l 1,5,-1
233 155 m 1,10,-1
 233 233 l 1,11,-1
 156 233 l 1,12,-1
 156 155 l 1,13,-1
 233 155 l 1,14,-1
 233 155 l 1,10,-1
EndSplineSet
EndChar

StartChar: .0129
Encoding: 129 129 98
Width: 467
GlyphClass: 1
Flags: W
LayerCount: 2
Fore
SplineSet
0 388 m 1,0,-1
 0 0 l 1,1,-1
 389 0 l 1,2,-1
 389 388 l 1,3,-1
 0 388 l 1,4,-1
 0 388 l 1,0,-1
311 77 m 1,5,-1
 78 77 l 1,6,-1
 78 311 l 1,7,-1
 311 311 l 1,8,-1
 311 77 l 1,9,-1
 311 77 l 1,5,-1
233 155 m 1,10,-1
 233 233 l 1,11,-1
 156 233 l 1,12,-1
 156 155 l 1,13,-1
 233 155 l 1,14,-1
 233 155 l 1,10,-1
EndSplineSet
EndChar

StartChar: quotesinglbase
Encoding: 8218 8218 99
Width: 156
GlyphClass: 1
Flags: W
LayerCount: 2
Fore
SplineSet
78 -78 m 1,0,-1
 78 77 l 1,1,-1
 0 77 l 1,2,-1
 0 -78 l 1,3,-1
 78 -78 l 1,4,-1
 78 -78 l 1,0,-1
EndSplineSet
EndChar

StartChar: florin
Encoding: 402 402 100
Width: 467
GlyphClass: 1
Flags: W
LayerCount: 2
Fore
SplineSet
389 311 m 1,0,-1
 389 388 l 1,1,-1
 77 388 l 1,2,-1
 77 233 l 1,3,-1
 0 233 l 1,4,-1
 0 155 l 1,5,-1
 77 155 l 1,6,-1
 77 77 l 1,7,-1
 0 77 l 1,8,-1
 0 0 l 1,9,-1
 155 0 l 1,10,-1
 155 155 l 1,11,-1
 233 155 l 1,12,-1
 233 233 l 1,13,-1
 155 233 l 1,14,-1
 155 311 l 1,15,-1
 389 311 l 1,16,-1
 389 311 l 1,0,-1
EndSplineSet
EndChar

StartChar: quotedblbase
Encoding: 8222 8222 101
Width: 311
GlyphClass: 1
Flags: W
LayerCount: 2
Fore
SplineSet
78 -78 m 1,0,-1
 78 77 l 1,1,-1
 0 77 l 1,2,-1
 0 -78 l 1,3,-1
 78 -78 l 1,4,-1
 78 -78 l 1,0,-1
233 -78 m 1,5,-1
 233 77 l 1,6,-1
 156 77 l 1,7,-1
 156 -78 l 1,8,-1
 233 -78 l 1,9,-1
 233 -78 l 1,5,-1
EndSplineSet
EndChar

StartChar: ellipsis
Encoding: 8230 8230 102
Width: 467
GlyphClass: 1
Flags: W
LayerCount: 2
Fore
SplineSet
78 0 m 1,0,-1
 78 77 l 1,1,-1
 0 77 l 1,2,-1
 0 0 l 1,3,-1
 78 0 l 1,4,-1
 78 0 l 1,0,-1
233 0 m 1,5,-1
 233 77 l 1,6,-1
 156 77 l 1,7,-1
 156 0 l 1,8,-1
 233 0 l 1,9,-1
 233 0 l 1,5,-1
389 0 m 1,10,-1
 389 77 l 1,11,-1
 311 77 l 1,12,-1
 311 0 l 1,13,-1
 389 0 l 1,14,-1
 389 0 l 1,10,-1
EndSplineSet
EndChar

StartChar: dagger
Encoding: 8224 8224 103
Width: 467
GlyphClass: 1
Flags: W
LayerCount: 2
Fore
SplineSet
389 388 m 1,0,-1
 233 388 l 1,1,-1
 233 544 l 1,2,-1
 155 544 l 1,3,-1
 155 388 l 1,4,-1
 0 388 l 1,5,-1
 0 311 l 1,6,-1
 155 311 l 1,7,-1
 155 -156 l 1,8,-1
 233 -156 l 1,9,-1
 233 311 l 1,10,-1
 389 311 l 1,11,-1
 389 388 l 1,12,-1
 389 388 l 1,0,-1
EndSplineSet
EndChar

StartChar: daggerdbl
Encoding: 8225 8225 104
Width: 467
GlyphClass: 1
Flags: W
LayerCount: 2
Fore
SplineSet
389 311 m 1,0,-1
 389 388 l 1,1,-1
 234 388 l 1,2,-1
 234 544 l 1,3,-1
 156 544 l 1,4,-1
 156 388 l 1,5,-1
 0 388 l 1,6,-1
 0 311 l 1,7,-1
 156 311 l 1,8,-1
 156 77 l 1,9,-1
 0 77 l 1,10,-1
 0 0 l 1,11,-1
 156 0 l 1,12,-1
 156 -156 l 1,13,-1
 234 -156 l 1,14,-1
 234 0 l 1,15,-1
 389 0 l 1,16,-1
 389 77 l 1,17,-1
 234 77 l 1,18,-1
 234 311 l 1,19,-1
 389 311 l 1,20,-1
 389 311 l 1,0,-1
EndSplineSet
EndChar

StartChar: circumflex
Encoding: 710 710 105
Width: 311
GlyphClass: 1
Flags: W
LayerCount: 2
Fore
SplineSet
78 388 m 1,0,-1
 78 466 l 1,1,-1
 0 466 l 1,2,-1
 0 388 l 1,3,-1
 78 388 l 1,4,-1
 78 388 l 1,0,-1
156 466 m 1,5,-1
 156 544 l 1,6,-1
 78 544 l 1,7,-1
 78 466 l 1,8,-1
 156 466 l 1,9,-1
 156 466 l 1,5,-1
233 388 m 1,10,-1
 233 466 l 1,11,-1
 156 466 l 1,12,-1
 156 388 l 1,13,-1
 233 388 l 1,14,-1
 233 388 l 1,10,-1
EndSplineSet
EndChar

StartChar: perthousand
Encoding: 8240 8240 106
Width: 700
GlyphClass: 1
Flags: W
LayerCount: 2
Fore
SplineSet
78 0 m 1,0,-1
 78 77 l 1,1,-1
 0 77 l 1,2,-1
 0 0 l 1,3,-1
 78 0 l 1,4,-1
 78 0 l 1,0,-1
156 77 m 1,5,-1
 156 155 l 1,6,-1
 78 155 l 1,7,-1
 78 77 l 1,8,-1
 156 77 l 1,9,-1
 156 77 l 1,5,-1
234 155 m 1,10,-1
 234 233 l 1,11,-1
 156 233 l 1,12,-1
 156 155 l 1,13,-1
 234 155 l 1,14,-1
 234 155 l 1,10,-1
311 233 m 1,15,-1
 311 311 l 1,16,-1
 234 311 l 1,17,-1
 234 233 l 1,18,-1
 311 233 l 1,19,-1
 311 233 l 1,15,-1
389 311 m 1,20,-1
 389 388 l 1,21,-1
 311 388 l 1,22,-1
 311 311 l 1,23,-1
 389 311 l 1,24,-1
 389 311 l 1,20,-1
156 233 m 1,25,-1
 156 388 l 1,26,-1
 0 388 l 1,27,-1
 0 233 l 1,28,-1
 156 233 l 1,29,-1
 156 233 l 1,25,-1
389 0 m 1,30,-1
 389 155 l 1,31,-1
 234 155 l 1,32,-1
 234 0 l 1,33,-1
 389 0 l 1,34,-1
 389 0 l 1,30,-1
622 0 m 1,35,-1
 622 155 l 1,36,-1
 467 155 l 1,37,-1
 467 0 l 1,38,-1
 622 0 l 1,39,-1
 622 0 l 1,35,-1
EndSplineSet
EndChar

StartChar: Scaron
Encoding: 352 352 107
Width: 467
GlyphClass: 1
Flags: W
LayerCount: 2
Fore
SplineSet
389 311 m 1,0,-1
 389 388 l 1,1,-1
 234 388 l 1,2,-1
 234 466 l 1,3,-1
 156 466 l 1,4,-1
 156 388 l 1,5,-1
 0 388 l 1,6,-1
 0 155 l 1,7,-1
 311 155 l 1,8,-1
 311 77 l 1,9,-1
 0 77 l 1,10,-1
 0 0 l 1,11,-1
 389 0 l 1,12,-1
 389 233 l 1,13,-1
 78 233 l 1,14,-1
 78 311 l 1,15,-1
 389 311 l 1,16,-1
 389 311 l 1,0,-1
78 544 m 1,17,-1
 78 466 l 1,18,-1
 156 466 l 1,19,-1
 156 544 l 1,20,-1
 78 544 l 1,21,-1
 78 544 l 1,17,-1
311 544 m 1,22,-1
 234 544 l 1,23,-1
 234 466 l 1,24,-1
 311 466 l 1,25,-1
 311 544 l 1,26,-1
 311 544 l 1,22,-1
EndSplineSet
EndChar

StartChar: guilsinglleft
Encoding: 8249 8249 108
Width: 233
GlyphClass: 1
Flags: W
LayerCount: 2
Fore
SplineSet
78 155 m 1,0,-1
 78 233 l 1,1,-1
 0 233 l 1,2,-1
 0 155 l 1,3,-1
 78 155 l 1,4,-1
 78 155 l 1,0,-1
155 233 m 1,5,-1
 155 311 l 1,6,-1
 78 311 l 1,7,-1
 78 233 l 1,8,-1
 155 233 l 1,9,-1
 155 233 l 1,5,-1
155 77 m 1,10,-1
 155 155 l 1,11,-1
 78 155 l 1,12,-1
 78 77 l 1,13,-1
 155 77 l 1,14,-1
 155 77 l 1,10,-1
EndSplineSet
EndChar

StartChar: OE
Encoding: 338 338 109
Width: 467
GlyphClass: 1
Flags: W
LayerCount: 2
Fore
SplineSet
389 311 m 1,0,-1
 389 388 l 1,1,-1
 0 388 l 1,2,-1
 0 0 l 1,3,-1
 389 0 l 1,4,-1
 389 77 l 1,5,-1
 234 77 l 1,6,-1
 234 155 l 1,7,-1
 389 155 l 1,8,-1
 389 233 l 1,9,-1
 234 233 l 1,10,-1
 234 311 l 1,11,-1
 389 311 l 1,12,-1
 389 311 l 1,0,-1
156 77 m 1,13,-1
 78 77 l 1,14,-1
 78 311 l 1,15,-1
 156 311 l 1,16,-1
 156 77 l 1,17,-1
 156 77 l 1,13,-1
EndSplineSet
EndChar

StartChar: .0141
Encoding: 141 141 110
Width: 467
GlyphClass: 1
Flags: W
LayerCount: 2
Fore
SplineSet
0 388 m 1,0,-1
 0 0 l 1,1,-1
 389 0 l 1,2,-1
 389 388 l 1,3,-1
 0 388 l 1,4,-1
 0 388 l 1,0,-1
311 77 m 1,5,-1
 78 77 l 1,6,-1
 78 311 l 1,7,-1
 311 311 l 1,8,-1
 311 77 l 1,9,-1
 311 77 l 1,5,-1
233 155 m 1,10,-1
 233 233 l 1,11,-1
 156 233 l 1,12,-1
 156 155 l 1,13,-1
 233 155 l 1,14,-1
 233 155 l 1,10,-1
EndSplineSet
EndChar

StartChar: .0142
Encoding: 142 142 111
Width: 467
GlyphClass: 1
Flags: W
LayerCount: 2
Fore
SplineSet
0 388 m 1,0,-1
 0 0 l 1,1,-1
 389 0 l 1,2,-1
 389 388 l 1,3,-1
 0 388 l 1,4,-1
 0 388 l 1,0,-1
311 77 m 1,5,-1
 78 77 l 1,6,-1
 78 311 l 1,7,-1
 311 311 l 1,8,-1
 311 77 l 1,9,-1
 311 77 l 1,5,-1
233 155 m 1,10,-1
 233 233 l 1,11,-1
 156 233 l 1,12,-1
 156 155 l 1,13,-1
 233 155 l 1,14,-1
 233 155 l 1,10,-1
EndSplineSet
EndChar

StartChar: .0143
Encoding: 143 143 112
Width: 467
GlyphClass: 1
Flags: W
LayerCount: 2
Fore
SplineSet
0 388 m 1,0,-1
 0 0 l 1,1,-1
 389 0 l 1,2,-1
 389 388 l 1,3,-1
 0 388 l 1,4,-1
 0 388 l 1,0,-1
311 77 m 1,5,-1
 78 77 l 1,6,-1
 78 311 l 1,7,-1
 311 311 l 1,8,-1
 311 77 l 1,9,-1
 311 77 l 1,5,-1
233 155 m 1,10,-1
 233 233 l 1,11,-1
 156 233 l 1,12,-1
 156 155 l 1,13,-1
 233 155 l 1,14,-1
 233 155 l 1,10,-1
EndSplineSet
EndChar

StartChar: .0144
Encoding: 144 144 113
Width: 467
GlyphClass: 1
Flags: W
LayerCount: 2
Fore
SplineSet
0 388 m 1,0,-1
 0 0 l 1,1,-1
 389 0 l 1,2,-1
 389 388 l 1,3,-1
 0 388 l 1,4,-1
 0 388 l 1,0,-1
311 77 m 1,5,-1
 78 77 l 1,6,-1
 78 311 l 1,7,-1
 311 311 l 1,8,-1
 311 77 l 1,9,-1
 311 77 l 1,5,-1
233 155 m 1,10,-1
 233 233 l 1,11,-1
 156 233 l 1,12,-1
 156 155 l 1,13,-1
 233 155 l 1,14,-1
 233 155 l 1,10,-1
EndSplineSet
EndChar

StartChar: quoteleft
Encoding: 8216 8216 114
Width: 155
GlyphClass: 1
Flags: W
LayerCount: 2
Fore
SplineSet
0 388 m 1,0,-1
 77 388 l 1,1,-1
 77 544 l 1,2,-1
 0 544 l 1,3,-1
 0 388 l 1,4,-1
 0 388 l 1,0,-1
EndSplineSet
EndChar

StartChar: quoteright
Encoding: 8217 8217 115
Width: 156
GlyphClass: 1
Flags: W
LayerCount: 2
Fore
SplineSet
0 388 m 1,0,-1
 78 388 l 1,1,-1
 78 544 l 1,2,-1
 0 544 l 1,3,-1
 0 388 l 1,4,-1
 0 388 l 1,0,-1
EndSplineSet
EndChar

StartChar: quotedblleft
Encoding: 8220 8220 116
Width: 311
GlyphClass: 1
Flags: W
LayerCount: 2
Fore
SplineSet
0 388 m 1,0,-1
 78 388 l 1,1,-1
 78 544 l 1,2,-1
 0 544 l 1,3,-1
 0 388 l 1,4,-1
 0 388 l 1,0,-1
155 388 m 1,5,-1
 233 388 l 1,6,-1
 233 544 l 1,7,-1
 155 544 l 1,8,-1
 155 388 l 1,9,-1
 155 388 l 1,5,-1
EndSplineSet
EndChar

StartChar: quotedblright
Encoding: 8221 8221 117
Width: 311
GlyphClass: 1
Flags: W
LayerCount: 2
Fore
SplineSet
0 388 m 1,0,-1
 78 388 l 1,1,-1
 78 544 l 1,2,-1
 0 544 l 1,3,-1
 0 388 l 1,4,-1
 0 388 l 1,0,-1
155 388 m 1,5,-1
 233 388 l 1,6,-1
 233 544 l 1,7,-1
 155 544 l 1,8,-1
 155 388 l 1,9,-1
 155 388 l 1,5,-1
EndSplineSet
EndChar

StartChar: bullet
Encoding: 8226 8226 118
Width: 467
GlyphClass: 1
Flags: W
LayerCount: 2
Fore
SplineSet
389 233 m 1,0,-1
 311 233 l 1,1,-1
 311 311 l 1,2,-1
 233 311 l 1,3,-1
 233 388 l 1,4,-1
 156 388 l 1,5,-1
 156 311 l 1,6,-1
 78 311 l 1,7,-1
 78 233 l 1,8,-1
 0 233 l 1,9,-1
 0 155 l 1,10,-1
 78 155 l 1,11,-1
 78 77 l 1,12,-1
 156 77 l 1,13,-1
 156 0 l 1,14,-1
 233 0 l 1,15,-1
 233 77 l 1,16,-1
 311 77 l 1,17,-1
 311 155 l 1,18,-1
 389 155 l 1,19,-1
 389 233 l 1,20,-1
 389 233 l 1,0,-1
EndSplineSet
EndChar

StartChar: endash
Encoding: 8211 8211 119
Width: 233
GlyphClass: 1
Flags: W
LayerCount: 2
Fore
SplineSet
155 155 m 1,0,-1
 155 233 l 1,1,-1
 0 233 l 1,2,-1
 0 155 l 1,3,-1
 155 155 l 1,4,-1
 155 155 l 1,0,-1
EndSplineSet
EndChar

StartChar: emdash
Encoding: 8212 8212 120
Width: 389
GlyphClass: 1
Flags: W
LayerCount: 2
Fore
SplineSet
311 155 m 1,0,-1
 311 233 l 1,1,-1
 0 233 l 1,2,-1
 0 155 l 1,3,-1
 311 155 l 1,4,-1
 311 155 l 1,0,-1
EndSplineSet
EndChar

StartChar: tilde
Encoding: 732 732 121
Width: 467
GlyphClass: 1
Flags: W
LayerCount: 2
Fore
SplineSet
311 544 m 1,0,-1
 311 466 l 1,1,-1
 233 466 l 1,2,-1
 233 544 l 1,3,-1
 0 544 l 1,4,-1
 0 388 l 1,5,-1
 78 388 l 1,6,-1
 78 466 l 1,7,-1
 155 466 l 1,8,-1
 155 388 l 1,9,-1
 389 388 l 1,10,-1
 389 544 l 1,11,-1
 311 544 l 1,12,-1
 311 544 l 1,0,-1
EndSplineSet
EndChar

StartChar: trademark
Encoding: 8482 8482 122
Width: 466
GlyphClass: 1
Flags: W
LayerCount: 2
Fore
SplineSet
0 544 m 1,0,-1
 0 466 l 1,1,-1
 155 466 l 1,2,-1
 155 233 l 1,3,-1
 233 233 l 1,4,-1
 233 466 l 1,5,-1
 388 466 l 1,6,-1
 388 544 l 1,7,-1
 0 544 l 1,8,-1
 0 544 l 1,0,-1
77 77 m 1,9,-1
 77 155 l 1,10,-1
 0 155 l 1,11,-1
 0 -156 l 1,12,-1
 77 -156 l 1,13,-1
 77 0 l 1,14,-1
 155 0 l 1,15,-1
 155 77 l 1,16,-1
 77 77 l 1,17,-1
 77 77 l 1,9,-1
155 -78 m 1,18,-1
 233 -78 l 1,19,-1
 233 0 l 1,20,-1
 155 0 l 1,21,-1
 155 -78 l 1,22,-1
 155 -78 l 1,18,-1
311 77 m 1,23,-1
 233 77 l 1,24,-1
 233 0 l 1,25,-1
 311 0 l 1,26,-1
 311 -156 l 1,27,-1
 388 -156 l 1,28,-1
 388 155 l 1,29,-1
 311 155 l 1,30,-1
 311 77 l 1,31,-1
 311 77 l 1,23,-1
EndSplineSet
EndChar

StartChar: scaron
Encoding: 353 353 123
Width: 467
GlyphClass: 1
Flags: W
LayerCount: 2
Fore
SplineSet
389 311 m 1,0,-1
 389 388 l 1,1,-1
 234 388 l 1,2,-1
 234 466 l 1,3,-1
 156 466 l 1,4,-1
 156 388 l 1,5,-1
 0 388 l 1,6,-1
 0 155 l 1,7,-1
 311 155 l 1,8,-1
 311 77 l 1,9,-1
 0 77 l 1,10,-1
 0 0 l 1,11,-1
 389 0 l 1,12,-1
 389 233 l 1,13,-1
 78 233 l 1,14,-1
 78 311 l 1,15,-1
 389 311 l 1,16,-1
 389 311 l 1,0,-1
78 544 m 1,17,-1
 78 466 l 1,18,-1
 156 466 l 1,19,-1
 156 544 l 1,20,-1
 78 544 l 1,21,-1
 78 544 l 1,17,-1
311 544 m 1,22,-1
 234 544 l 1,23,-1
 234 466 l 1,24,-1
 311 466 l 1,25,-1
 311 544 l 1,26,-1
 311 544 l 1,22,-1
EndSplineSet
EndChar

StartChar: guilsinglright
Encoding: 8250 8250 124
Width: 233
GlyphClass: 1
Flags: W
LayerCount: 2
Fore
SplineSet
78 233 m 1,0,-1
 78 311 l 1,1,-1
 0 311 l 1,2,-1
 0 233 l 1,3,-1
 78 233 l 1,4,-1
 78 233 l 1,0,-1
155 155 m 1,5,-1
 155 233 l 1,6,-1
 78 233 l 1,7,-1
 78 155 l 1,8,-1
 155 155 l 1,9,-1
 155 155 l 1,5,-1
78 77 m 1,10,-1
 78 155 l 1,11,-1
 0 155 l 1,12,-1
 0 77 l 1,13,-1
 78 77 l 1,14,-1
 78 77 l 1,10,-1
EndSplineSet
EndChar

StartChar: oe
Encoding: 339 339 125
Width: 467
GlyphClass: 1
Flags: W
LayerCount: 2
Fore
SplineSet
389 311 m 1,0,-1
 389 388 l 1,1,-1
 0 388 l 1,2,-1
 0 0 l 1,3,-1
 389 0 l 1,4,-1
 389 77 l 1,5,-1
 234 77 l 1,6,-1
 234 155 l 1,7,-1
 389 155 l 1,8,-1
 389 233 l 1,9,-1
 234 233 l 1,10,-1
 234 311 l 1,11,-1
 389 311 l 1,12,-1
 389 311 l 1,0,-1
156 77 m 1,13,-1
 78 77 l 1,14,-1
 78 311 l 1,15,-1
 156 311 l 1,16,-1
 156 77 l 1,17,-1
 156 77 l 1,13,-1
EndSplineSet
EndChar

StartChar: .0157
Encoding: 157 157 126
Width: 467
GlyphClass: 1
Flags: W
LayerCount: 2
Fore
SplineSet
0 388 m 1,0,-1
 0 0 l 1,1,-1
 389 0 l 1,2,-1
 389 388 l 1,3,-1
 0 388 l 1,4,-1
 0 388 l 1,0,-1
311 77 m 1,5,-1
 78 77 l 1,6,-1
 78 311 l 1,7,-1
 311 311 l 1,8,-1
 311 77 l 1,9,-1
 311 77 l 1,5,-1
233 155 m 1,10,-1
 233 233 l 1,11,-1
 155 233 l 1,12,-1
 155 155 l 1,13,-1
 233 155 l 1,14,-1
 233 155 l 1,10,-1
EndSplineSet
EndChar

StartChar: .0158
Encoding: 158 158 127
Width: 467
GlyphClass: 1
Flags: W
LayerCount: 2
Fore
SplineSet
0 388 m 1,0,-1
 0 0 l 1,1,-1
 389 0 l 1,2,-1
 389 388 l 1,3,-1
 0 388 l 1,4,-1
 0 388 l 1,0,-1
311 77 m 1,5,-1
 78 77 l 1,6,-1
 78 311 l 1,7,-1
 311 311 l 1,8,-1
 311 77 l 1,9,-1
 311 77 l 1,5,-1
233 155 m 1,10,-1
 233 233 l 1,11,-1
 155 233 l 1,12,-1
 155 155 l 1,13,-1
 233 155 l 1,14,-1
 233 155 l 1,10,-1
EndSplineSet
EndChar

StartChar: Ydieresis
Encoding: 376 376 128
Width: 467
GlyphClass: 1
Flags: W
LayerCount: 2
Fore
SplineSet
234 544 m 1,0,-1
 234 388 l 1,1,-1
 311 388 l 1,2,-1
 311 233 l 1,3,-1
 78 233 l 1,4,-1
 78 388 l 1,5,-1
 156 388 l 1,6,-1
 156 544 l 1,7,-1
 0 544 l 1,8,-1
 0 155 l 1,9,-1
 156 155 l 1,10,-1
 156 0 l 1,11,-1
 234 0 l 1,12,-1
 234 155 l 1,13,-1
 389 155 l 1,14,-1
 389 544 l 1,15,-1
 234 544 l 1,16,-1
 234 544 l 1,0,-1
EndSplineSet
EndChar

StartChar: exclamdown
Encoding: 161 161 130
Width: 156
GlyphClass: 1
Flags: W
LayerCount: 2
Fore
SplineSet
0 0 m 1,0,-1
 78 0 l 1,1,-1
 78 233 l 1,2,-1
 0 233 l 1,3,-1
 0 0 l 1,4,-1
 0 0 l 1,0,-1
0 311 m 1,5,-1
 78 311 l 1,6,-1
 78 388 l 1,7,-1
 0 388 l 1,8,-1
 0 311 l 1,9,-1
 0 311 l 1,5,-1
EndSplineSet
EndChar

StartChar: cent
Encoding: 162 162 131
Width: 466
GlyphClass: 1
Flags: W
LayerCount: 2
Fore
SplineSet
233 466 m 1,0,-1
 155 466 l 1,1,-1
 155 388 l 1,2,-1
 0 388 l 1,3,-1
 0 0 l 1,4,-1
 155 0 l 1,5,-1
 155 -78 l 1,6,-1
 233 -78 l 1,7,-1
 233 0 l 1,8,-1
 388 0 l 1,9,-1
 388 77 l 1,10,-1
 77 77 l 1,11,-1
 77 311 l 1,12,-1
 388 311 l 1,13,-1
 388 388 l 1,14,-1
 233 388 l 1,15,-1
 233 466 l 1,16,-1
 233 466 l 1,0,-1
EndSplineSet
EndChar

StartChar: sterling
Encoding: 163 163 132
Width: 467
GlyphClass: 1
Flags: W
LayerCount: 2
Fore
SplineSet
0 388 m 1,0,-1
 0 311 l 1,1,-1
 78 311 l 1,2,-1
 78 233 l 1,3,-1
 0 233 l 1,4,-1
 0 155 l 1,5,-1
 78 155 l 1,6,-1
 78 77 l 1,7,-1
 0 77 l 1,8,-1
 0 0 l 1,9,-1
 389 0 l 1,10,-1
 389 77 l 1,11,-1
 156 77 l 1,12,-1
 156 155 l 1,13,-1
 234 155 l 1,14,-1
 234 233 l 1,15,-1
 156 233 l 1,16,-1
 156 311 l 1,17,-1
 311 311 l 1,18,-1
 311 388 l 1,19,-1
 0 388 l 1,20,-1
 0 388 l 1,0,-1
311 233 m 1,21,-1
 389 233 l 1,22,-1
 389 311 l 1,23,-1
 311 311 l 1,24,-1
 311 233 l 1,25,-1
 311 233 l 1,21,-1
EndSplineSet
EndChar

StartChar: currency
Encoding: 164 164 133
Width: 467
GlyphClass: 1
Flags: W
LayerCount: 2
Fore
SplineSet
0 388 m 1,0,-1
 0 311 l 1,1,-1
 78 311 l 1,2,-1
 78 388 l 1,3,-1
 0 388 l 1,4,-1
 0 388 l 1,0,-1
0 0 m 1,5,-1
 78 0 l 1,6,-1
 78 77 l 1,7,-1
 0 77 l 1,8,-1
 0 0 l 1,9,-1
 0 0 l 1,5,-1
78 311 m 1,10,-1
 78 77 l 1,11,-1
 311 77 l 1,12,-1
 311 311 l 1,13,-1
 78 311 l 1,14,-1
 78 311 l 1,10,-1
233 155 m 1,15,-1
 155 155 l 1,16,-1
 155 233 l 1,17,-1
 233 233 l 1,18,-1
 233 155 l 1,19,-1
 233 155 l 1,15,-1
389 0 m 1,20,-1
 389 77 l 1,21,-1
 311 77 l 1,22,-1
 311 0 l 1,23,-1
 389 0 l 1,24,-1
 389 0 l 1,20,-1
311 311 m 1,25,-1
 389 311 l 1,26,-1
 389 388 l 1,27,-1
 311 388 l 1,28,-1
 311 311 l 1,29,-1
 311 311 l 1,25,-1
EndSplineSet
EndChar

StartChar: yen
Encoding: 165 165 134
Width: 466
GlyphClass: 1
Flags: W
LayerCount: 2
Fore
SplineSet
311 311 m 1,0,-1
 77 311 l 1,1,-1
 77 388 l 1,2,-1
 0 388 l 1,3,-1
 0 233 l 1,4,-1
 77 233 l 1,5,-1
 77 155 l 1,6,-1
 155 155 l 1,7,-1
 155 77 l 1,8,-1
 77 77 l 1,9,-1
 77 0 l 1,10,-1
 311 0 l 1,11,-1
 311 77 l 1,12,-1
 233 77 l 1,13,-1
 233 155 l 1,14,-1
 311 155 l 1,15,-1
 311 233 l 1,16,-1
 388 233 l 1,17,-1
 388 388 l 1,18,-1
 311 388 l 1,19,-1
 311 311 l 1,20,-1
 311 311 l 1,0,-1
EndSplineSet
EndChar

StartChar: brokenbar
Encoding: 166 166 135
Width: 156
GlyphClass: 1
Flags: W
LayerCount: 2
Fore
SplineSet
0 233 m 1,0,-1
 78 233 l 1,1,-1
 78 466 l 1,2,-1
 0 466 l 1,3,-1
 0 233 l 1,4,-1
 0 233 l 1,0,-1
0 -78 m 1,5,-1
 78 -78 l 1,6,-1
 78 155 l 1,7,-1
 0 155 l 1,8,-1
 0 -78 l 1,9,-1
 0 -78 l 1,5,-1
EndSplineSet
EndChar

StartChar: section
Encoding: 167 167 136
Width: 467
GlyphClass: 1
Flags: W
LayerCount: 2
Fore
SplineSet
0 466 m 1,0,-1
 0 77 l 1,1,-1
 311 77 l 1,2,-1
 311 0 l 1,3,-1
 0 0 l 1,4,-1
 0 -78 l 1,5,-1
 389 -78 l 1,6,-1
 389 311 l 1,7,-1
 78 311 l 1,8,-1
 78 388 l 1,9,-1
 389 388 l 1,10,-1
 389 466 l 1,11,-1
 0 466 l 1,12,-1
 0 466 l 1,0,-1
311 233 m 1,13,-1
 311 155 l 1,14,-1
 78 155 l 1,15,-1
 78 233 l 1,16,-1
 311 233 l 1,17,-1
 311 233 l 1,13,-1
EndSplineSet
EndChar

StartChar: dieresis
Encoding: 168 168 137
Width: 467
GlyphClass: 1
Flags: W
LayerCount: 2
Fore
SplineSet
0 388 m 1,0,-1
 156 388 l 1,1,-1
 156 544 l 1,2,-1
 0 544 l 1,3,-1
 0 388 l 1,4,-1
 0 388 l 1,0,-1
234 388 m 1,5,-1
 389 388 l 1,6,-1
 389 544 l 1,7,-1
 234 544 l 1,8,-1
 234 388 l 1,9,-1
 234 388 l 1,5,-1
EndSplineSet
EndChar

StartChar: copyright
Encoding: 169 169 138
Width: 467
GlyphClass: 1
Flags: W
LayerCount: 2
Fore
SplineSet
311 466 m 1,0,-1
 78 466 l 1,1,-1
 78 388 l 1,2,-1
 311 388 l 1,3,-1
 311 466 l 1,4,-1
 311 466 l 1,0,-1
78 -78 m 1,5,-1
 311 -78 l 1,6,-1
 311 0 l 1,7,-1
 78 0 l 1,8,-1
 78 -78 l 1,9,-1
 78 -78 l 1,5,-1
311 311 m 1,10,-1
 78 311 l 1,11,-1
 78 388 l 1,12,-1
 0 388 l 1,13,-1
 0 0 l 1,14,-1
 78 0 l 1,15,-1
 78 77 l 1,16,-1
 311 77 l 1,17,-1
 311 0 l 1,18,-1
 389 0 l 1,19,-1
 389 388 l 1,20,-1
 311 388 l 1,21,-1
 311 311 l 1,22,-1
 311 311 l 1,10,-1
311 155 m 1,23,-1
 156 155 l 1,24,-1
 156 233 l 1,25,-1
 311 233 l 1,26,-1
 311 155 l 1,27,-1
 311 155 l 1,23,-1
EndSplineSet
EndChar

StartChar: ordfeminine
Encoding: 170 170 139
Width: 233
GlyphClass: 1
Flags: W
LayerCount: 2
Fore
SplineSet
0 466 m 1,0,-1
 78 466 l 1,1,-1
 78 388 l 1,2,-1
 0 388 l 1,3,-1
 0 233 l 1,4,-1
 155 233 l 1,5,-1
 155 544 l 1,6,-1
 0 544 l 1,7,-1
 0 466 l 1,8,-1
 0 466 l 1,0,-1
EndSplineSet
EndChar

StartChar: guillemotleft
Encoding: 171 171 140
Width: 467
GlyphClass: 1
Flags: W
LayerCount: 2
Fore
SplineSet
0 155 m 1,0,-1
 78 155 l 1,1,-1
 78 233 l 1,2,-1
 0 233 l 1,3,-1
 0 155 l 1,4,-1
 0 155 l 1,0,-1
78 233 m 1,5,-1
 156 233 l 1,6,-1
 156 311 l 1,7,-1
 78 311 l 1,8,-1
 78 233 l 1,9,-1
 78 233 l 1,5,-1
156 77 m 1,10,-1
 156 155 l 1,11,-1
 78 155 l 1,12,-1
 78 77 l 1,13,-1
 156 77 l 1,14,-1
 156 77 l 1,10,-1
233 155 m 1,15,-1
 311 155 l 1,16,-1
 311 233 l 1,17,-1
 233 233 l 1,18,-1
 233 155 l 1,19,-1
 233 155 l 1,15,-1
311 233 m 1,20,-1
 389 233 l 1,21,-1
 389 311 l 1,22,-1
 311 311 l 1,23,-1
 311 233 l 1,24,-1
 311 233 l 1,20,-1
389 77 m 1,25,-1
 389 155 l 1,26,-1
 311 155 l 1,27,-1
 311 77 l 1,28,-1
 389 77 l 1,29,-1
 389 77 l 1,25,-1
EndSplineSet
EndChar

StartChar: logicalnot
Encoding: 172 172 141
Width: 467
GlyphClass: 1
Flags: W
LayerCount: 2
Fore
SplineSet
0 311 m 1,0,-1
 0 233 l 1,1,-1
 311 233 l 1,2,-1
 311 155 l 1,3,-1
 389 155 l 1,4,-1
 389 311 l 1,5,-1
 0 311 l 1,6,-1
 0 311 l 1,0,-1
EndSplineSet
EndChar

StartChar: hyphen
Encoding: 173 173 142
Width: 312
GlyphClass: 1
Flags: W
LayerCount: 2
Fore
SplineSet
0 155 m 1,0,-1
 234 155 l 1,1,-1
 234 233 l 1,2,-1
 0 233 l 1,3,-1
 0 155 l 1,4,-1
 0 155 l 1,0,-1
EndSplineSet
EndChar

StartChar: registered
Encoding: 174 174 143
Width: 467
GlyphClass: 1
Flags: W
LayerCount: 2
Fore
SplineSet
312 466 m 1,0,-1
 78 466 l 1,1,-1
 78 388 l 1,2,-1
 312 388 l 1,3,-1
 312 466 l 1,4,-1
 312 466 l 1,0,-1
312 311 m 1,5,-1
 78 311 l 1,6,-1
 78 388 l 1,7,-1
 0 388 l 1,8,-1
 0 0 l 1,9,-1
 78 0 l 1,10,-1
 78 77 l 1,11,-1
 156 77 l 1,12,-1
 156 155 l 1,13,-1
 234 155 l 1,14,-1
 234 233 l 1,15,-1
 312 233 l 1,16,-1
 312 155 l 1,17,-1
 234 155 l 1,18,-1
 234 77 l 1,19,-1
 312 77 l 1,20,-1
 312 0 l 1,21,-1
 389 0 l 1,22,-1
 389 388 l 1,23,-1
 312 388 l 1,24,-1
 312 311 l 1,25,-1
 312 311 l 1,5,-1
78 -78 m 1,26,-1
 312 -78 l 1,27,-1
 312 0 l 1,28,-1
 78 0 l 1,29,-1
 78 -78 l 1,30,-1
 78 -78 l 1,26,-1
EndSplineSet
EndChar

StartChar: macron
Encoding: 175 175 144
Width: 467
GlyphClass: 1
Flags: W
LayerCount: 2
Fore
SplineSet
0 466 m 1,0,-1
 389 466 l 1,1,-1
 389 544 l 1,2,-1
 0 544 l 1,3,-1
 0 466 l 1,4,-1
 0 466 l 1,0,-1
EndSplineSet
EndChar

StartChar: degree
Encoding: 176 176 145
Width: 311
GlyphClass: 1
Flags: W
LayerCount: 2
Fore
SplineSet
0 544 m 1,0,-1
 0 311 l 1,1,-1
 233 311 l 1,2,-1
 233 544 l 1,3,-1
 0 544 l 1,4,-1
 0 544 l 1,0,-1
155 388 m 1,5,-1
 78 388 l 1,6,-1
 78 466 l 1,7,-1
 155 466 l 1,8,-1
 155 388 l 1,9,-1
 155 388 l 1,5,-1
EndSplineSet
EndChar

StartChar: plusminus
Encoding: 177 177 146
Width: 467
GlyphClass: 1
Flags: W
LayerCount: 2
Fore
SplineSet
0 0 m 1,0,-1
 389 0 l 1,1,-1
 389 77 l 1,2,-1
 0 77 l 1,3,-1
 0 0 l 1,4,-1
 0 0 l 1,0,-1
233 388 m 1,5,-1
 155 388 l 1,6,-1
 155 311 l 1,7,-1
 0 311 l 1,8,-1
 0 233 l 1,9,-1
 155 233 l 1,10,-1
 155 155 l 1,11,-1
 233 155 l 1,12,-1
 233 233 l 1,13,-1
 389 233 l 1,14,-1
 389 311 l 1,15,-1
 233 311 l 1,16,-1
 233 388 l 1,17,-1
 233 388 l 1,5,-1
EndSplineSet
EndChar

StartChar: twosuperior
Encoding: 178 178 147
Width: 311
GlyphClass: 1
Flags: W
LayerCount: 2
Fore
SplineSet
0 466 m 1,0,-1
 155 466 l 1,1,-1
 155 388 l 1,2,-1
 233 388 l 1,3,-1
 233 544 l 1,4,-1
 0 544 l 1,5,-1
 0 466 l 1,6,-1
 0 466 l 1,0,-1
0 233 m 1,7,-1
 233 233 l 1,8,-1
 233 311 l 1,9,-1
 155 311 l 1,10,-1
 155 388 l 1,11,-1
 0 388 l 1,12,-1
 0 233 l 1,13,-1
 0 233 l 1,7,-1
EndSplineSet
EndChar

StartChar: threesuperior
Encoding: 179 179 148
Width: 311
GlyphClass: 1
Flags: W
LayerCount: 2
Fore
SplineSet
0 544 m 1,0,-1
 0 466 l 1,1,-1
 77 466 l 1,2,-1
 77 388 l 1,3,-1
 155 388 l 1,4,-1
 155 311 l 1,5,-1
 0 311 l 1,6,-1
 0 233 l 1,7,-1
 233 233 l 1,8,-1
 233 544 l 1,9,-1
 0 544 l 1,10,-1
 0 544 l 1,0,-1
EndSplineSet
EndChar

StartChar: acute
Encoding: 180 180 149
Width: 233
GlyphClass: 1
Flags: W
LayerCount: 2
Fore
SplineSet
0 388 m 1,0,-1
 78 388 l 1,1,-1
 78 466 l 1,2,-1
 0 466 l 1,3,-1
 0 388 l 1,4,-1
 0 388 l 1,0,-1
78 466 m 1,5,-1
 155 466 l 1,6,-1
 155 544 l 1,7,-1
 78 544 l 1,8,-1
 78 466 l 1,9,-1
 78 466 l 1,5,-1
EndSplineSet
EndChar

StartChar: mu
Encoding: 181 181 150
Width: 467
GlyphClass: 1
Flags: W
LayerCount: 2
Fore
SplineSet
311 77 m 1,0,-1
 78 77 l 1,1,-1
 78 388 l 1,2,-1
 0 388 l 1,3,-1
 0 -156 l 1,4,-1
 78 -156 l 1,5,-1
 78 0 l 1,6,-1
 389 0 l 1,7,-1
 389 388 l 1,8,-1
 311 388 l 1,9,-1
 311 77 l 1,10,-1
 311 77 l 1,0,-1
EndSplineSet
EndChar

StartChar: paragraph
Encoding: 182 182 151
Width: 467
GlyphClass: 1
Flags: W
LayerCount: 2
Fore
SplineSet
0 388 m 1,0,-1
 0 155 l 1,1,-1
 155 155 l 1,2,-1
 155 0 l 1,3,-1
 233 0 l 1,4,-1
 233 311 l 1,5,-1
 311 311 l 1,6,-1
 311 0 l 1,7,-1
 389 0 l 1,8,-1
 389 388 l 1,9,-1
 0 388 l 1,10,-1
 0 388 l 1,0,-1
EndSplineSet
EndChar

StartChar: periodcentered
Encoding: 183 183 152
AltUni2: 002219.ffffffff.0 002219.ffffffff.0
Width: 312
GlyphClass: 1
Flags: W
LayerCount: 2
Fore
SplineSet
0 77 m 1,0,-1
 234 77 l 1,1,-1
 234 311 l 1,2,-1
 0 311 l 1,3,-1
 0 77 l 1,4,-1
 0 77 l 1,0,-1
EndSplineSet
EndChar

StartChar: cedilla
Encoding: 184 184 153
Width: 234
GlyphClass: 1
Flags: W
LayerCount: 2
Fore
SplineSet
78 -78 m 1,0,-1
 0 -78 l 1,1,-1
 0 -156 l 1,2,-1
 156 -156 l 1,3,-1
 156 0 l 1,4,-1
 78 0 l 1,5,-1
 78 -78 l 1,6,-1
 78 -78 l 1,0,-1
EndSplineSet
EndChar

StartChar: onesuperior
Encoding: 185 185 154
Width: 233
GlyphClass: 1
Flags: W
LayerCount: 2
Fore
SplineSet
78 466 m 1,0,-1
 0 466 l 1,1,-1
 0 388 l 1,2,-1
 78 388 l 1,3,-1
 78 233 l 1,4,-1
 155 233 l 1,5,-1
 155 544 l 1,6,-1
 78 544 l 1,7,-1
 78 466 l 1,8,-1
 78 466 l 1,0,-1
EndSplineSet
EndChar

StartChar: ordmasculine
Encoding: 186 186 155
Width: 311
GlyphClass: 1
Flags: W
LayerCount: 2
Fore
SplineSet
0 544 m 1,0,-1
 0 233 l 1,1,-1
 233 233 l 1,2,-1
 233 544 l 1,3,-1
 0 544 l 1,4,-1
 0 544 l 1,0,-1
156 311 m 1,5,-1
 78 311 l 1,6,-1
 78 466 l 1,7,-1
 156 466 l 1,8,-1
 156 311 l 1,9,-1
 156 311 l 1,5,-1
EndSplineSet
EndChar

StartChar: guillemotright
Encoding: 187 187 156
Width: 467
GlyphClass: 1
Flags: W
LayerCount: 2
Fore
SplineSet
0 311 m 1,0,-1
 0 233 l 1,1,-1
 78 233 l 1,2,-1
 78 311 l 1,3,-1
 0 311 l 1,4,-1
 0 311 l 1,0,-1
78 155 m 1,5,-1
 156 155 l 1,6,-1
 156 233 l 1,7,-1
 78 233 l 1,8,-1
 78 155 l 1,9,-1
 78 155 l 1,5,-1
0 77 m 1,10,-1
 78 77 l 1,11,-1
 78 155 l 1,12,-1
 0 155 l 1,13,-1
 0 77 l 1,14,-1
 0 77 l 1,10,-1
234 311 m 1,15,-1
 234 233 l 1,16,-1
 311 233 l 1,17,-1
 311 311 l 1,18,-1
 234 311 l 1,19,-1
 234 311 l 1,15,-1
311 155 m 1,20,-1
 389 155 l 1,21,-1
 389 233 l 1,22,-1
 311 233 l 1,23,-1
 311 155 l 1,24,-1
 311 155 l 1,20,-1
234 77 m 1,25,-1
 311 77 l 1,26,-1
 311 155 l 1,27,-1
 234 155 l 1,28,-1
 234 77 l 1,29,-1
 234 77 l 1,25,-1
EndSplineSet
EndChar

StartChar: onequarter
Encoding: 188 188 157
Width: 467
GlyphClass: 1
Flags: W
LayerCount: 2
Fore
SplineSet
0 0 m 1,0,-1
 78 0 l 1,1,-1
 78 77 l 1,2,-1
 0 77 l 1,3,-1
 0 0 l 1,4,-1
 0 0 l 1,0,-1
233 233 m 1,5,-1
 311 233 l 1,6,-1
 311 311 l 1,7,-1
 233 311 l 1,8,-1
 233 233 l 1,9,-1
 233 233 l 1,5,-1
311 311 m 1,10,-1
 389 311 l 1,11,-1
 389 388 l 1,12,-1
 311 388 l 1,13,-1
 311 311 l 1,14,-1
 311 311 l 1,10,-1
0 466 m 1,15,-1
 0 155 l 1,16,-1
 78 155 l 1,17,-1
 78 466 l 1,18,-1
 0 466 l 1,19,-1
 0 466 l 1,15,-1
233 77 m 1,20,-1
 233 233 l 1,21,-1
 155 233 l 1,22,-1
 155 155 l 1,23,-1
 78 155 l 1,24,-1
 78 77 l 1,25,-1
 155 77 l 1,26,-1
 155 0 l 1,27,-1
 311 0 l 1,28,-1
 311 -78 l 1,29,-1
 389 -78 l 1,30,-1
 389 233 l 1,31,-1
 311 233 l 1,32,-1
 311 77 l 1,33,-1
 233 77 l 1,34,-1
 233 77 l 1,20,-1
EndSplineSet
EndChar

StartChar: onehalf
Encoding: 189 189 158
Width: 466
GlyphClass: 1
Flags: W
LayerCount: 2
Fore
SplineSet
0 0 m 1,0,-1
 77 0 l 1,1,-1
 77 77 l 1,2,-1
 0 77 l 1,3,-1
 0 0 l 1,4,-1
 0 0 l 1,0,-1
77 155 m 1,5,-1
 77 77 l 1,6,-1
 155 77 l 1,7,-1
 155 155 l 1,8,-1
 77 155 l 1,9,-1
 77 155 l 1,5,-1
233 233 m 1,10,-1
 155 233 l 1,11,-1
 155 155 l 1,12,-1
 311 155 l 1,13,-1
 311 77 l 1,14,-1
 388 77 l 1,15,-1
 388 233 l 1,16,-1
 311 233 l 1,17,-1
 311 311 l 1,18,-1
 233 311 l 1,19,-1
 233 233 l 1,20,-1
 233 233 l 1,10,-1
311 311 m 1,21,-1
 388 311 l 1,22,-1
 388 388 l 1,23,-1
 311 388 l 1,24,-1
 311 311 l 1,25,-1
 311 311 l 1,21,-1
0 466 m 1,26,-1
 0 155 l 1,27,-1
 77 155 l 1,28,-1
 77 466 l 1,29,-1
 0 466 l 1,30,-1
 0 466 l 1,26,-1
155 -78 m 1,31,-1
 388 -78 l 1,32,-1
 388 0 l 1,33,-1
 311 0 l 1,34,-1
 311 77 l 1,35,-1
 155 77 l 1,36,-1
 155 -78 l 1,37,-1
 155 -78 l 1,31,-1
EndSplineSet
EndChar

StartChar: threequarters
Encoding: 190 190 159
Width: 467
GlyphClass: 1
Flags: W
LayerCount: 2
Fore
SplineSet
0 0 m 1,0,-1
 78 0 l 1,1,-1
 78 77 l 1,2,-1
 0 77 l 1,3,-1
 0 0 l 1,4,-1
 0 0 l 1,0,-1
311 311 m 1,5,-1
 389 311 l 1,6,-1
 389 388 l 1,7,-1
 311 388 l 1,8,-1
 311 311 l 1,9,-1
 311 311 l 1,5,-1
234 466 m 1,10,-1
 0 466 l 1,11,-1
 0 388 l 1,12,-1
 78 388 l 1,13,-1
 78 311 l 1,14,-1
 156 311 l 1,15,-1
 156 233 l 1,16,-1
 0 233 l 1,17,-1
 0 155 l 1,18,-1
 78 155 l 1,19,-1
 78 77 l 1,20,-1
 156 77 l 1,21,-1
 156 0 l 1,22,-1
 311 0 l 1,23,-1
 311 -78 l 1,24,-1
 389 -78 l 1,25,-1
 389 233 l 1,26,-1
 311 233 l 1,27,-1
 311 77 l 1,28,-1
 234 77 l 1,29,-1
 234 233 l 1,30,-1
 311 233 l 1,31,-1
 311 311 l 1,32,-1
 234 311 l 1,33,-1
 234 466 l 1,34,-1
 234 466 l 1,10,-1
EndSplineSet
EndChar

StartChar: questiondown
Encoding: 191 191 160
Width: 467
GlyphClass: 1
Flags: W
LayerCount: 2
Fore
SplineSet
78 155 m 1,0,-1
 233 155 l 1,1,-1
 233 233 l 1,2,-1
 0 233 l 1,3,-1
 0 0 l 1,4,-1
 389 0 l 1,5,-1
 389 77 l 1,6,-1
 78 77 l 1,7,-1
 78 155 l 1,8,-1
 78 155 l 1,0,-1
233 388 m 1,9,-1
 156 388 l 1,10,-1
 156 311 l 1,11,-1
 233 311 l 1,12,-1
 233 388 l 1,13,-1
 233 388 l 1,9,-1
EndSplineSet
EndChar

StartChar: Agrave
Encoding: 192 192 161
Width: 467
GlyphClass: 1
Flags: W
LayerCount: 2
Fore
SplineSet
233 388 m 1,0,-1
 233 466 l 1,1,-1
 155 466 l 1,2,-1
 155 388 l 1,3,-1
 0 388 l 1,4,-1
 0 0 l 1,5,-1
 77 0 l 1,6,-1
 77 155 l 1,7,-1
 311 155 l 1,8,-1
 311 0 l 1,9,-1
 389 0 l 1,10,-1
 389 388 l 1,11,-1
 233 388 l 1,12,-1
 233 388 l 1,0,-1
311 233 m 1,13,-1
 77 233 l 1,14,-1
 77 311 l 1,15,-1
 311 311 l 1,16,-1
 311 233 l 1,17,-1
 311 233 l 1,13,-1
77 544 m 1,18,-1
 77 466 l 1,19,-1
 155 466 l 1,20,-1
 155 544 l 1,21,-1
 77 544 l 1,22,-1
 77 544 l 1,18,-1
EndSplineSet
EndChar

StartChar: Aacute
Encoding: 193 193 162
Width: 467
GlyphClass: 1
Flags: W
LayerCount: 2
Fore
SplineSet
234 388 m 1,0,-1
 234 466 l 1,1,-1
 156 466 l 1,2,-1
 156 388 l 1,3,-1
 0 388 l 1,4,-1
 0 0 l 1,5,-1
 78 0 l 1,6,-1
 78 155 l 1,7,-1
 311 155 l 1,8,-1
 311 0 l 1,9,-1
 389 0 l 1,10,-1
 389 388 l 1,11,-1
 234 388 l 1,12,-1
 234 388 l 1,0,-1
311 233 m 1,13,-1
 78 233 l 1,14,-1
 78 311 l 1,15,-1
 311 311 l 1,16,-1
 311 233 l 1,17,-1
 311 233 l 1,13,-1
311 544 m 1,18,-1
 234 544 l 1,19,-1
 234 466 l 1,20,-1
 311 466 l 1,21,-1
 311 544 l 1,22,-1
 311 544 l 1,18,-1
EndSplineSet
EndChar

StartChar: Acircumflex
Encoding: 194 194 163
Width: 467
GlyphClass: 1
Flags: W
LayerCount: 2
Fore
SplineSet
233 544 m 1,0,-1
 156 544 l 1,1,-1
 156 466 l 1,2,-1
 233 466 l 1,3,-1
 233 544 l 1,4,-1
 233 544 l 1,0,-1
311 466 m 1,5,-1
 233 466 l 1,6,-1
 233 388 l 1,7,-1
 156 388 l 1,8,-1
 156 466 l 1,9,-1
 78 466 l 1,10,-1
 78 388 l 1,11,-1
 0 388 l 1,12,-1
 0 0 l 1,13,-1
 78 0 l 1,14,-1
 78 155 l 1,15,-1
 311 155 l 1,16,-1
 311 0 l 1,17,-1
 389 0 l 1,18,-1
 389 388 l 1,19,-1
 311 388 l 1,20,-1
 311 466 l 1,21,-1
 311 466 l 1,5,-1
311 233 m 1,22,-1
 78 233 l 1,23,-1
 78 311 l 1,24,-1
 311 311 l 1,25,-1
 311 233 l 1,26,-1
 311 233 l 1,22,-1
EndSplineSet
EndChar

StartChar: Atilde
Encoding: 195 195 164
Width: 467
GlyphClass: 1
Flags: W
LayerCount: 2
Fore
SplineSet
311 466 m 1,0,-1
 233 466 l 1,1,-1
 233 544 l 1,2,-1
 0 544 l 1,3,-1
 0 0 l 1,4,-1
 77 0 l 1,5,-1
 77 155 l 1,6,-1
 311 155 l 1,7,-1
 311 0 l 1,8,-1
 389 0 l 1,9,-1
 389 544 l 1,10,-1
 311 544 l 1,11,-1
 311 466 l 1,12,-1
 311 466 l 1,0,-1
77 466 m 1,13,-1
 155 466 l 1,14,-1
 155 388 l 1,15,-1
 77 388 l 1,16,-1
 77 466 l 1,17,-1
 77 466 l 1,13,-1
311 233 m 1,18,-1
 77 233 l 1,19,-1
 77 311 l 1,20,-1
 311 311 l 1,21,-1
 311 233 l 1,22,-1
 311 233 l 1,18,-1
EndSplineSet
EndChar

StartChar: Adieresis
Encoding: 196 196 165
Width: 467
GlyphClass: 1
Flags: W
LayerCount: 2
Fore
SplineSet
234 388 m 1,0,-1
 156 388 l 1,1,-1
 156 544 l 1,2,-1
 0 544 l 1,3,-1
 0 0 l 1,4,-1
 78 0 l 1,5,-1
 78 155 l 1,6,-1
 311 155 l 1,7,-1
 311 0 l 1,8,-1
 389 0 l 1,9,-1
 389 544 l 1,10,-1
 234 544 l 1,11,-1
 234 388 l 1,12,-1
 234 388 l 1,0,-1
311 233 m 1,13,-1
 78 233 l 1,14,-1
 78 311 l 1,15,-1
 311 311 l 1,16,-1
 311 233 l 1,17,-1
 311 233 l 1,13,-1
EndSplineSet
EndChar

StartChar: Aring
Encoding: 197 197 166
Width: 467
GlyphClass: 1
Flags: W
LayerCount: 2
Fore
SplineSet
311 544 m 1,0,-1
 78 544 l 1,1,-1
 78 388 l 1,2,-1
 0 388 l 1,3,-1
 0 0 l 1,4,-1
 78 0 l 1,5,-1
 78 155 l 1,6,-1
 311 155 l 1,7,-1
 311 0 l 1,8,-1
 389 0 l 1,9,-1
 389 388 l 1,10,-1
 311 388 l 1,11,-1
 311 544 l 1,12,-1
 311 544 l 1,0,-1
311 233 m 1,13,-1
 78 233 l 1,14,-1
 78 311 l 1,15,-1
 311 311 l 1,16,-1
 311 233 l 1,17,-1
 311 233 l 1,13,-1
156 388 m 1,18,-1
 156 466 l 1,19,-1
 233 466 l 1,20,-1
 233 388 l 1,21,-1
 156 388 l 1,22,-1
 156 388 l 1,18,-1
EndSplineSet
EndChar

StartChar: AE
Encoding: 198 198 167
Width: 467
GlyphClass: 1
Flags: W
LayerCount: 2
Fore
SplineSet
0 388 m 1,0,-1
 0 0 l 1,1,-1
 77 0 l 1,2,-1
 77 155 l 1,3,-1
 155 155 l 1,4,-1
 155 0 l 1,5,-1
 389 0 l 1,6,-1
 389 77 l 1,7,-1
 233 77 l 1,8,-1
 233 155 l 1,9,-1
 389 155 l 1,10,-1
 389 233 l 1,11,-1
 233 233 l 1,12,-1
 233 311 l 1,13,-1
 389 311 l 1,14,-1
 389 388 l 1,15,-1
 0 388 l 1,16,-1
 0 388 l 1,0,-1
155 233 m 1,17,-1
 77 233 l 1,18,-1
 77 311 l 1,19,-1
 155 311 l 1,20,-1
 155 233 l 1,21,-1
 155 233 l 1,17,-1
EndSplineSet
EndChar

StartChar: Ccedilla
Encoding: 199 199 168
Width: 467
GlyphClass: 1
Flags: W
LayerCount: 2
Fore
SplineSet
0 388 m 1,0,-1
 0 0 l 1,1,-1
 156 0 l 1,2,-1
 156 -78 l 1,3,-1
 78 -78 l 1,4,-1
 78 -156 l 1,5,-1
 234 -156 l 1,6,-1
 234 0 l 1,7,-1
 389 0 l 1,8,-1
 389 77 l 1,9,-1
 78 77 l 1,10,-1
 78 311 l 1,11,-1
 389 311 l 1,12,-1
 389 388 l 1,13,-1
 0 388 l 1,14,-1
 0 388 l 1,0,-1
EndSplineSet
EndChar

StartChar: Egrave
Encoding: 200 200 169
Width: 467
GlyphClass: 1
Flags: W
LayerCount: 2
Fore
SplineSet
233 466 m 1,0,-1
 156 466 l 1,1,-1
 156 388 l 1,2,-1
 0 388 l 1,3,-1
 0 0 l 1,4,-1
 389 0 l 1,5,-1
 389 77 l 1,6,-1
 78 77 l 1,7,-1
 78 155 l 1,8,-1
 233 155 l 1,9,-1
 233 233 l 1,10,-1
 78 233 l 1,11,-1
 78 311 l 1,12,-1
 389 311 l 1,13,-1
 389 388 l 1,14,-1
 233 388 l 1,15,-1
 233 466 l 1,16,-1
 233 466 l 1,0,-1
78 544 m 1,17,-1
 78 466 l 1,18,-1
 156 466 l 1,19,-1
 156 544 l 1,20,-1
 78 544 l 1,21,-1
 78 544 l 1,17,-1
EndSplineSet
EndChar

StartChar: Eacute
Encoding: 201 201 170
Width: 467
GlyphClass: 1
Flags: W
LayerCount: 2
Fore
SplineSet
233 466 m 1,0,-1
 156 466 l 1,1,-1
 156 388 l 1,2,-1
 0 388 l 1,3,-1
 0 0 l 1,4,-1
 389 0 l 1,5,-1
 389 77 l 1,6,-1
 78 77 l 1,7,-1
 78 155 l 1,8,-1
 233 155 l 1,9,-1
 233 233 l 1,10,-1
 78 233 l 1,11,-1
 78 311 l 1,12,-1
 389 311 l 1,13,-1
 389 388 l 1,14,-1
 233 388 l 1,15,-1
 233 466 l 1,16,-1
 233 466 l 1,0,-1
311 544 m 1,17,-1
 233 544 l 1,18,-1
 233 466 l 1,19,-1
 311 466 l 1,20,-1
 311 544 l 1,21,-1
 311 544 l 1,17,-1
EndSplineSet
EndChar

StartChar: Ecircumflex
Encoding: 202 202 171
Width: 467
GlyphClass: 1
Flags: W
LayerCount: 2
Fore
SplineSet
233 544 m 1,0,-1
 155 544 l 1,1,-1
 155 466 l 1,2,-1
 233 466 l 1,3,-1
 233 544 l 1,4,-1
 233 544 l 1,0,-1
311 466 m 1,5,-1
 233 466 l 1,6,-1
 233 388 l 1,7,-1
 155 388 l 1,8,-1
 155 466 l 1,9,-1
 77 466 l 1,10,-1
 77 388 l 1,11,-1
 0 388 l 1,12,-1
 0 0 l 1,13,-1
 389 0 l 1,14,-1
 389 77 l 1,15,-1
 77 77 l 1,16,-1
 77 155 l 1,17,-1
 233 155 l 1,18,-1
 233 233 l 1,19,-1
 77 233 l 1,20,-1
 77 311 l 1,21,-1
 389 311 l 1,22,-1
 389 388 l 1,23,-1
 311 388 l 1,24,-1
 311 466 l 1,25,-1
 311 466 l 1,5,-1
EndSplineSet
EndChar

StartChar: Edieresis
Encoding: 203 203 172
Width: 467
GlyphClass: 1
Flags: W
LayerCount: 2
Fore
SplineSet
234 388 m 1,0,-1
 156 388 l 1,1,-1
 156 544 l 1,2,-1
 0 544 l 1,3,-1
 0 0 l 1,4,-1
 389 0 l 1,5,-1
 389 77 l 1,6,-1
 78 77 l 1,7,-1
 78 155 l 1,8,-1
 234 155 l 1,9,-1
 234 233 l 1,10,-1
 78 233 l 1,11,-1
 78 311 l 1,12,-1
 389 311 l 1,13,-1
 389 544 l 1,14,-1
 234 544 l 1,15,-1
 234 388 l 1,16,-1
 234 388 l 1,0,-1
EndSplineSet
EndChar

StartChar: Igrave
Encoding: 204 204 173
Width: 467
GlyphClass: 1
Flags: W
LayerCount: 2
Fore
SplineSet
233 466 m 1,0,-1
 156 466 l 1,1,-1
 156 388 l 1,2,-1
 0 388 l 1,3,-1
 0 311 l 1,4,-1
 156 311 l 1,5,-1
 156 77 l 1,6,-1
 0 77 l 1,7,-1
 0 0 l 1,8,-1
 389 0 l 1,9,-1
 389 77 l 1,10,-1
 233 77 l 1,11,-1
 233 311 l 1,12,-1
 389 311 l 1,13,-1
 389 388 l 1,14,-1
 233 388 l 1,15,-1
 233 466 l 1,16,-1
 233 466 l 1,0,-1
78 544 m 1,17,-1
 78 466 l 1,18,-1
 156 466 l 1,19,-1
 156 544 l 1,20,-1
 78 544 l 1,21,-1
 78 544 l 1,17,-1
EndSplineSet
EndChar

StartChar: Iacute
Encoding: 205 205 174
Width: 467
GlyphClass: 1
Flags: W
LayerCount: 2
Fore
SplineSet
233 466 m 1,0,-1
 155 466 l 1,1,-1
 155 388 l 1,2,-1
 0 388 l 1,3,-1
 0 311 l 1,4,-1
 155 311 l 1,5,-1
 155 77 l 1,6,-1
 0 77 l 1,7,-1
 0 0 l 1,8,-1
 389 0 l 1,9,-1
 389 77 l 1,10,-1
 233 77 l 1,11,-1
 233 311 l 1,12,-1
 389 311 l 1,13,-1
 389 388 l 1,14,-1
 233 388 l 1,15,-1
 233 466 l 1,16,-1
 233 466 l 1,0,-1
311 544 m 1,17,-1
 233 544 l 1,18,-1
 233 466 l 1,19,-1
 311 466 l 1,20,-1
 311 544 l 1,21,-1
 311 544 l 1,17,-1
EndSplineSet
EndChar

StartChar: Icircumflex
Encoding: 206 206 175
Width: 467
GlyphClass: 1
Flags: W
LayerCount: 2
Fore
SplineSet
234 544 m 1,0,-1
 156 544 l 1,1,-1
 156 466 l 1,2,-1
 234 466 l 1,3,-1
 234 544 l 1,4,-1
 234 544 l 1,0,-1
311 466 m 1,5,-1
 234 466 l 1,6,-1
 234 388 l 1,7,-1
 156 388 l 1,8,-1
 156 466 l 1,9,-1
 78 466 l 1,10,-1
 78 388 l 1,11,-1
 0 388 l 1,12,-1
 0 311 l 1,13,-1
 156 311 l 1,14,-1
 156 77 l 1,15,-1
 0 77 l 1,16,-1
 0 0 l 1,17,-1
 389 0 l 1,18,-1
 389 77 l 1,19,-1
 234 77 l 1,20,-1
 234 311 l 1,21,-1
 389 311 l 1,22,-1
 389 388 l 1,23,-1
 311 388 l 1,24,-1
 311 466 l 1,25,-1
 311 466 l 1,5,-1
EndSplineSet
EndChar

StartChar: Idieresis
Encoding: 207 207 176
Width: 467
GlyphClass: 1
Flags: W
LayerCount: 2
Fore
SplineSet
233 388 m 1,0,-1
 156 388 l 1,1,-1
 156 544 l 1,2,-1
 0 544 l 1,3,-1
 0 311 l 1,4,-1
 156 311 l 1,5,-1
 156 77 l 1,6,-1
 0 77 l 1,7,-1
 0 0 l 1,8,-1
 389 0 l 1,9,-1
 389 77 l 1,10,-1
 233 77 l 1,11,-1
 233 311 l 1,12,-1
 389 311 l 1,13,-1
 389 544 l 1,14,-1
 233 544 l 1,15,-1
 233 388 l 1,16,-1
 233 388 l 1,0,-1
EndSplineSet
EndChar

StartChar: Eth
Encoding: 208 208 177
Width: 467
GlyphClass: 1
Flags: W
LayerCount: 2
Fore
SplineSet
77 155 m 1,0,-1
 155 155 l 1,1,-1
 155 233 l 1,2,-1
 77 233 l 1,3,-1
 77 311 l 1,4,-1
 311 311 l 1,5,-1
 311 388 l 1,6,-1
 0 388 l 1,7,-1
 0 0 l 1,8,-1
 311 0 l 1,9,-1
 311 77 l 1,10,-1
 77 77 l 1,11,-1
 77 155 l 1,12,-1
 77 155 l 1,0,-1
311 77 m 1,13,-1
 389 77 l 1,14,-1
 389 311 l 1,15,-1
 311 311 l 1,16,-1
 311 77 l 1,17,-1
 311 77 l 1,13,-1
EndSplineSet
EndChar

StartChar: Ntilde
Encoding: 209 209 178
Width: 467
GlyphClass: 1
Flags: W
LayerCount: 2
Fore
SplineSet
156 233 m 1,0,-1
 156 155 l 1,1,-1
 234 155 l 1,2,-1
 234 233 l 1,3,-1
 156 233 l 1,4,-1
 156 233 l 1,0,-1
311 466 m 1,5,-1
 234 466 l 1,6,-1
 234 544 l 1,7,-1
 0 544 l 1,8,-1
 0 0 l 1,9,-1
 78 0 l 1,10,-1
 78 233 l 1,11,-1
 156 233 l 1,12,-1
 156 311 l 1,13,-1
 78 311 l 1,14,-1
 78 466 l 1,15,-1
 156 466 l 1,16,-1
 156 388 l 1,17,-1
 311 388 l 1,18,-1
 311 155 l 1,19,-1
 234 155 l 1,20,-1
 234 77 l 1,21,-1
 311 77 l 1,22,-1
 311 0 l 1,23,-1
 389 0 l 1,24,-1
 389 544 l 1,25,-1
 311 544 l 1,26,-1
 311 466 l 1,27,-1
 311 466 l 1,5,-1
EndSplineSet
EndChar

StartChar: Ograve
Encoding: 210 210 179
Width: 467
GlyphClass: 1
Flags: W
LayerCount: 2
Fore
SplineSet
233 388 m 1,0,-1
 233 466 l 1,1,-1
 156 466 l 1,2,-1
 156 388 l 1,3,-1
 0 388 l 1,4,-1
 0 0 l 1,5,-1
 389 0 l 1,6,-1
 389 388 l 1,7,-1
 233 388 l 1,8,-1
 233 388 l 1,0,-1
311 77 m 1,9,-1
 78 77 l 1,10,-1
 78 311 l 1,11,-1
 311 311 l 1,12,-1
 311 77 l 1,13,-1
 311 77 l 1,9,-1
78 544 m 1,14,-1
 78 466 l 1,15,-1
 156 466 l 1,16,-1
 156 544 l 1,17,-1
 78 544 l 1,18,-1
 78 544 l 1,14,-1
EndSplineSet
EndChar

StartChar: Oacute
Encoding: 211 211 180
Width: 467
GlyphClass: 1
Flags: W
LayerCount: 2
Fore
SplineSet
233 388 m 1,0,-1
 233 466 l 1,1,-1
 156 466 l 1,2,-1
 156 388 l 1,3,-1
 0 388 l 1,4,-1
 0 0 l 1,5,-1
 389 0 l 1,6,-1
 389 388 l 1,7,-1
 233 388 l 1,8,-1
 233 388 l 1,0,-1
311 77 m 1,9,-1
 78 77 l 1,10,-1
 78 311 l 1,11,-1
 311 311 l 1,12,-1
 311 77 l 1,13,-1
 311 77 l 1,9,-1
311 544 m 1,14,-1
 233 544 l 1,15,-1
 233 466 l 1,16,-1
 311 466 l 1,17,-1
 311 544 l 1,18,-1
 311 544 l 1,14,-1
EndSplineSet
EndChar

StartChar: Ocircumflex
Encoding: 212 212 181
Width: 467
GlyphClass: 1
Flags: W
LayerCount: 2
Fore
SplineSet
233 544 m 1,0,-1
 155 544 l 1,1,-1
 155 466 l 1,2,-1
 233 466 l 1,3,-1
 233 544 l 1,4,-1
 233 544 l 1,0,-1
311 466 m 1,5,-1
 233 466 l 1,6,-1
 233 388 l 1,7,-1
 155 388 l 1,8,-1
 155 466 l 1,9,-1
 77 466 l 1,10,-1
 77 388 l 1,11,-1
 0 388 l 1,12,-1
 0 0 l 1,13,-1
 389 0 l 1,14,-1
 389 388 l 1,15,-1
 311 388 l 1,16,-1
 311 466 l 1,17,-1
 311 466 l 1,5,-1
311 77 m 1,18,-1
 77 77 l 1,19,-1
 77 311 l 1,20,-1
 311 311 l 1,21,-1
 311 77 l 1,22,-1
 311 77 l 1,18,-1
EndSplineSet
EndChar

StartChar: Otilde
Encoding: 213 213 182
Width: 467
GlyphClass: 1
Flags: W
LayerCount: 2
Fore
SplineSet
311 466 m 1,0,-1
 234 466 l 1,1,-1
 234 544 l 1,2,-1
 0 544 l 1,3,-1
 0 0 l 1,4,-1
 389 0 l 1,5,-1
 389 544 l 1,6,-1
 311 544 l 1,7,-1
 311 466 l 1,8,-1
 311 466 l 1,0,-1
78 466 m 1,9,-1
 156 466 l 1,10,-1
 156 388 l 1,11,-1
 78 388 l 1,12,-1
 78 466 l 1,13,-1
 78 466 l 1,9,-1
311 77 m 1,14,-1
 78 77 l 1,15,-1
 78 311 l 1,16,-1
 311 311 l 1,17,-1
 311 77 l 1,18,-1
 311 77 l 1,14,-1
EndSplineSet
EndChar

StartChar: Odieresis
Encoding: 214 214 183
Width: 467
GlyphClass: 1
Flags: W
LayerCount: 2
Fore
SplineSet
233 388 m 1,0,-1
 156 388 l 1,1,-1
 156 544 l 1,2,-1
 0 544 l 1,3,-1
 0 0 l 1,4,-1
 389 0 l 1,5,-1
 389 544 l 1,6,-1
 233 544 l 1,7,-1
 233 388 l 1,8,-1
 233 388 l 1,0,-1
311 77 m 1,9,-1
 78 77 l 1,10,-1
 78 311 l 1,11,-1
 311 311 l 1,12,-1
 311 77 l 1,13,-1
 311 77 l 1,9,-1
EndSplineSet
EndChar

StartChar: multiply
Encoding: 215 215 184
Width: 311
GlyphClass: 1
Flags: W
LayerCount: 2
Fore
SplineSet
0 311 m 1,0,-1
 0 233 l 1,1,-1
 77 233 l 1,2,-1
 77 311 l 1,3,-1
 0 311 l 1,4,-1
 0 311 l 1,0,-1
77 155 m 1,5,-1
 155 155 l 1,6,-1
 155 233 l 1,7,-1
 77 233 l 1,8,-1
 77 155 l 1,9,-1
 77 155 l 1,5,-1
233 77 m 1,10,-1
 233 155 l 1,11,-1
 155 155 l 1,12,-1
 155 77 l 1,13,-1
 233 77 l 1,14,-1
 233 77 l 1,10,-1
0 77 m 1,15,-1
 77 77 l 1,16,-1
 77 155 l 1,17,-1
 0 155 l 1,18,-1
 0 77 l 1,19,-1
 0 77 l 1,15,-1
155 233 m 1,20,-1
 233 233 l 1,21,-1
 233 311 l 1,22,-1
 155 311 l 1,23,-1
 155 233 l 1,24,-1
 155 233 l 1,20,-1
EndSplineSet
EndChar

StartChar: Oslash
Encoding: 216 216 185
Width: 467
GlyphClass: 1
Flags: W
LayerCount: 2
Fore
SplineSet
0 388 m 1,0,-1
 0 0 l 1,1,-1
 389 0 l 1,2,-1
 389 388 l 1,3,-1
 0 388 l 1,4,-1
 0 388 l 1,0,-1
311 77 m 1,5,-1
 155 77 l 1,6,-1
 155 155 l 1,7,-1
 78 155 l 1,8,-1
 78 311 l 1,9,-1
 233 311 l 1,10,-1
 233 233 l 1,11,-1
 311 233 l 1,12,-1
 311 77 l 1,13,-1
 311 77 l 1,5,-1
233 233 m 1,14,-1
 155 233 l 1,15,-1
 155 155 l 1,16,-1
 233 155 l 1,17,-1
 233 233 l 1,18,-1
 233 233 l 1,14,-1
EndSplineSet
EndChar

StartChar: Ugrave
Encoding: 217 217 186
Width: 467
GlyphClass: 1
Flags: W
LayerCount: 2
Fore
SplineSet
312 77 m 1,0,-1
 78 77 l 1,1,-1
 78 388 l 1,2,-1
 0 388 l 1,3,-1
 0 0 l 1,4,-1
 389 0 l 1,5,-1
 389 388 l 1,6,-1
 312 388 l 1,7,-1
 312 77 l 1,8,-1
 312 77 l 1,0,-1
234 388 m 1,9,-1
 234 466 l 1,10,-1
 156 466 l 1,11,-1
 156 388 l 1,12,-1
 234 388 l 1,13,-1
 234 388 l 1,9,-1
156 544 m 1,14,-1
 78 544 l 1,15,-1
 78 466 l 1,16,-1
 156 466 l 1,17,-1
 156 544 l 1,18,-1
 156 544 l 1,14,-1
EndSplineSet
EndChar

StartChar: Uacute
Encoding: 218 218 187
Width: 467
GlyphClass: 1
Flags: W
LayerCount: 2
Fore
SplineSet
311 77 m 1,0,-1
 78 77 l 1,1,-1
 78 388 l 1,2,-1
 0 388 l 1,3,-1
 0 0 l 1,4,-1
 389 0 l 1,5,-1
 389 388 l 1,6,-1
 311 388 l 1,7,-1
 311 77 l 1,8,-1
 311 77 l 1,0,-1
233 466 m 1,9,-1
 156 466 l 1,10,-1
 156 388 l 1,11,-1
 233 388 l 1,12,-1
 233 466 l 1,13,-1
 233 466 l 1,9,-1
311 544 m 1,14,-1
 233 544 l 1,15,-1
 233 466 l 1,16,-1
 311 466 l 1,17,-1
 311 544 l 1,18,-1
 311 544 l 1,14,-1
EndSplineSet
EndChar

StartChar: Ucircumflex
Encoding: 219 219 188
Width: 467
GlyphClass: 1
Flags: W
LayerCount: 2
Fore
SplineSet
311 77 m 1,0,-1
 78 77 l 1,1,-1
 78 388 l 1,2,-1
 0 388 l 1,3,-1
 0 0 l 1,4,-1
 389 0 l 1,5,-1
 389 388 l 1,6,-1
 311 388 l 1,7,-1
 311 77 l 1,8,-1
 311 77 l 1,0,-1
155 466 m 1,9,-1
 78 466 l 1,10,-1
 78 388 l 1,11,-1
 155 388 l 1,12,-1
 155 466 l 1,13,-1
 155 466 l 1,9,-1
233 544 m 1,14,-1
 155 544 l 1,15,-1
 155 466 l 1,16,-1
 233 466 l 1,17,-1
 233 544 l 1,18,-1
 233 544 l 1,14,-1
311 388 m 1,19,-1
 311 466 l 1,20,-1
 233 466 l 1,21,-1
 233 388 l 1,22,-1
 311 388 l 1,23,-1
 311 388 l 1,19,-1
EndSplineSet
EndChar

StartChar: Udieresis
Encoding: 220 220 189
Width: 467
GlyphClass: 1
Flags: W
LayerCount: 2
Fore
SplineSet
234 388 m 1,0,-1
 312 388 l 1,1,-1
 312 77 l 1,2,-1
 78 77 l 1,3,-1
 78 388 l 1,4,-1
 156 388 l 1,5,-1
 156 544 l 1,6,-1
 0 544 l 1,7,-1
 0 0 l 1,8,-1
 389 0 l 1,9,-1
 389 544 l 1,10,-1
 234 544 l 1,11,-1
 234 388 l 1,12,-1
 234 388 l 1,0,-1
EndSplineSet
EndChar

StartChar: Yacute
Encoding: 221 221 190
Width: 467
GlyphClass: 1
Flags: W
LayerCount: 2
Fore
SplineSet
311 233 m 1,0,-1
 78 233 l 1,1,-1
 78 388 l 1,2,-1
 0 388 l 1,3,-1
 0 155 l 1,4,-1
 156 155 l 1,5,-1
 156 0 l 1,6,-1
 233 0 l 1,7,-1
 233 155 l 1,8,-1
 389 155 l 1,9,-1
 389 388 l 1,10,-1
 311 388 l 1,11,-1
 311 233 l 1,12,-1
 311 233 l 1,0,-1
233 466 m 1,13,-1
 156 466 l 1,14,-1
 156 388 l 1,15,-1
 233 388 l 1,16,-1
 233 466 l 1,17,-1
 233 466 l 1,13,-1
311 544 m 1,18,-1
 233 544 l 1,19,-1
 233 466 l 1,20,-1
 311 466 l 1,21,-1
 311 544 l 1,22,-1
 311 544 l 1,18,-1
EndSplineSet
EndChar

StartChar: Thorn
Encoding: 222 222 191
Width: 467
GlyphClass: 1
Flags: W
LayerCount: 2
Fore
SplineSet
77 311 m 1,0,-1
 311 311 l 1,1,-1
 311 388 l 1,2,-1
 77 388 l 1,3,-1
 77 466 l 1,4,-1
 0 466 l 1,5,-1
 0 -78 l 1,6,-1
 77 -78 l 1,7,-1
 77 0 l 1,8,-1
 311 0 l 1,9,-1
 311 77 l 1,10,-1
 77 77 l 1,11,-1
 77 311 l 1,12,-1
 77 311 l 1,0,-1
311 77 m 1,13,-1
 389 77 l 1,14,-1
 389 311 l 1,15,-1
 311 311 l 1,16,-1
 311 77 l 1,17,-1
 311 77 l 1,13,-1
EndSplineSet
EndChar

StartChar: germandbls
Encoding: 223 223 192
Width: 467
GlyphClass: 1
Flags: W
LayerCount: 2
Fore
SplineSet
0 388 m 1,0,-1
 0 0 l 1,1,-1
 78 0 l 1,2,-1
 78 155 l 1,3,-1
 311 155 l 1,4,-1
 311 233 l 1,5,-1
 78 233 l 1,6,-1
 78 311 l 1,7,-1
 311 311 l 1,8,-1
 311 233 l 1,9,-1
 389 233 l 1,10,-1
 389 388 l 1,11,-1
 0 388 l 1,12,-1
 0 388 l 1,0,-1
156 77 m 1,13,-1
 156 0 l 1,14,-1
 389 0 l 1,15,-1
 389 155 l 1,16,-1
 311 155 l 1,17,-1
 311 77 l 1,18,-1
 156 77 l 1,19,-1
 156 77 l 1,13,-1
EndSplineSet
EndChar

StartChar: agrave
Encoding: 224 224 193
Width: 467
GlyphClass: 1
Flags: W
LayerCount: 2
Fore
SplineSet
233 388 m 1,0,-1
 233 466 l 1,1,-1
 156 466 l 1,2,-1
 156 388 l 1,3,-1
 0 388 l 1,4,-1
 0 0 l 1,5,-1
 78 0 l 1,6,-1
 78 155 l 1,7,-1
 311 155 l 1,8,-1
 311 0 l 1,9,-1
 389 0 l 1,10,-1
 389 388 l 1,11,-1
 233 388 l 1,12,-1
 233 388 l 1,0,-1
311 233 m 1,13,-1
 78 233 l 1,14,-1
 78 311 l 1,15,-1
 311 311 l 1,16,-1
 311 233 l 1,17,-1
 311 233 l 1,13,-1
78 544 m 1,18,-1
 78 466 l 1,19,-1
 156 466 l 1,20,-1
 156 544 l 1,21,-1
 78 544 l 1,22,-1
 78 544 l 1,18,-1
EndSplineSet
EndChar

StartChar: aacute
Encoding: 225 225 194
Width: 467
GlyphClass: 1
Flags: W
LayerCount: 2
Fore
SplineSet
233 388 m 1,0,-1
 233 466 l 1,1,-1
 155 466 l 1,2,-1
 155 388 l 1,3,-1
 0 388 l 1,4,-1
 0 0 l 1,5,-1
 77 0 l 1,6,-1
 77 155 l 1,7,-1
 311 155 l 1,8,-1
 311 0 l 1,9,-1
 389 0 l 1,10,-1
 389 388 l 1,11,-1
 233 388 l 1,12,-1
 233 388 l 1,0,-1
311 233 m 1,13,-1
 77 233 l 1,14,-1
 77 311 l 1,15,-1
 311 311 l 1,16,-1
 311 233 l 1,17,-1
 311 233 l 1,13,-1
311 544 m 1,18,-1
 233 544 l 1,19,-1
 233 466 l 1,20,-1
 311 466 l 1,21,-1
 311 544 l 1,22,-1
 311 544 l 1,18,-1
EndSplineSet
EndChar

StartChar: acircumflex
Encoding: 226 226 195
Width: 467
GlyphClass: 1
Flags: W
LayerCount: 2
Fore
SplineSet
234 544 m 1,0,-1
 156 544 l 1,1,-1
 156 466 l 1,2,-1
 234 466 l 1,3,-1
 234 544 l 1,4,-1
 234 544 l 1,0,-1
311 466 m 1,5,-1
 234 466 l 1,6,-1
 234 388 l 1,7,-1
 156 388 l 1,8,-1
 156 466 l 1,9,-1
 78 466 l 1,10,-1
 78 388 l 1,11,-1
 0 388 l 1,12,-1
 0 0 l 1,13,-1
 78 0 l 1,14,-1
 78 155 l 1,15,-1
 311 155 l 1,16,-1
 311 0 l 1,17,-1
 389 0 l 1,18,-1
 389 388 l 1,19,-1
 311 388 l 1,20,-1
 311 466 l 1,21,-1
 311 466 l 1,5,-1
311 233 m 1,22,-1
 78 233 l 1,23,-1
 78 311 l 1,24,-1
 311 311 l 1,25,-1
 311 233 l 1,26,-1
 311 233 l 1,22,-1
EndSplineSet
EndChar

StartChar: atilde
Encoding: 227 227 196
Width: 467
GlyphClass: 1
Flags: W
LayerCount: 2
Fore
SplineSet
311 466 m 1,0,-1
 233 466 l 1,1,-1
 233 544 l 1,2,-1
 0 544 l 1,3,-1
 0 0 l 1,4,-1
 78 0 l 1,5,-1
 78 155 l 1,6,-1
 311 155 l 1,7,-1
 311 0 l 1,8,-1
 389 0 l 1,9,-1
 389 544 l 1,10,-1
 311 544 l 1,11,-1
 311 466 l 1,12,-1
 311 466 l 1,0,-1
78 466 m 1,13,-1
 156 466 l 1,14,-1
 156 388 l 1,15,-1
 78 388 l 1,16,-1
 78 466 l 1,17,-1
 78 466 l 1,13,-1
311 233 m 1,18,-1
 78 233 l 1,19,-1
 78 311 l 1,20,-1
 311 311 l 1,21,-1
 311 233 l 1,22,-1
 311 233 l 1,18,-1
EndSplineSet
EndChar

StartChar: adieresis
Encoding: 228 228 197
Width: 467
GlyphClass: 1
Flags: W
LayerCount: 2
Fore
SplineSet
233 388 m 1,0,-1
 155 388 l 1,1,-1
 155 544 l 1,2,-1
 0 544 l 1,3,-1
 0 0 l 1,4,-1
 77 0 l 1,5,-1
 77 155 l 1,6,-1
 311 155 l 1,7,-1
 311 0 l 1,8,-1
 389 0 l 1,9,-1
 389 544 l 1,10,-1
 233 544 l 1,11,-1
 233 388 l 1,12,-1
 233 388 l 1,0,-1
311 233 m 1,13,-1
 77 233 l 1,14,-1
 77 311 l 1,15,-1
 311 311 l 1,16,-1
 311 233 l 1,17,-1
 311 233 l 1,13,-1
EndSplineSet
EndChar

StartChar: aring
Encoding: 229 229 198
Width: 467
GlyphClass: 1
Flags: W
LayerCount: 2
Fore
SplineSet
311 544 m 1,0,-1
 78 544 l 1,1,-1
 78 388 l 1,2,-1
 0 388 l 1,3,-1
 0 0 l 1,4,-1
 78 0 l 1,5,-1
 78 155 l 1,6,-1
 311 155 l 1,7,-1
 311 0 l 1,8,-1
 389 0 l 1,9,-1
 389 388 l 1,10,-1
 311 388 l 1,11,-1
 311 544 l 1,12,-1
 311 544 l 1,0,-1
311 233 m 1,13,-1
 78 233 l 1,14,-1
 78 311 l 1,15,-1
 311 311 l 1,16,-1
 311 233 l 1,17,-1
 311 233 l 1,13,-1
156 388 m 1,18,-1
 156 466 l 1,19,-1
 234 466 l 1,20,-1
 234 388 l 1,21,-1
 156 388 l 1,22,-1
 156 388 l 1,18,-1
EndSplineSet
EndChar

StartChar: ae
Encoding: 230 230 199
Width: 467
GlyphClass: 1
Flags: W
LayerCount: 2
Fore
SplineSet
0 388 m 1,0,-1
 0 0 l 1,1,-1
 78 0 l 1,2,-1
 78 155 l 1,3,-1
 156 155 l 1,4,-1
 156 0 l 1,5,-1
 389 0 l 1,6,-1
 389 77 l 1,7,-1
 233 77 l 1,8,-1
 233 155 l 1,9,-1
 389 155 l 1,10,-1
 389 233 l 1,11,-1
 233 233 l 1,12,-1
 233 311 l 1,13,-1
 389 311 l 1,14,-1
 389 388 l 1,15,-1
 0 388 l 1,16,-1
 0 388 l 1,0,-1
156 233 m 1,17,-1
 78 233 l 1,18,-1
 78 311 l 1,19,-1
 156 311 l 1,20,-1
 156 233 l 1,21,-1
 156 233 l 1,17,-1
EndSplineSet
EndChar

StartChar: ccedilla
Encoding: 231 231 200
Width: 467
GlyphClass: 1
Flags: W
LayerCount: 2
Fore
SplineSet
0 388 m 1,0,-1
 0 0 l 1,1,-1
 156 0 l 1,2,-1
 156 -78 l 1,3,-1
 78 -78 l 1,4,-1
 78 -156 l 1,5,-1
 234 -156 l 1,6,-1
 234 0 l 1,7,-1
 389 0 l 1,8,-1
 389 77 l 1,9,-1
 78 77 l 1,10,-1
 78 311 l 1,11,-1
 389 311 l 1,12,-1
 389 388 l 1,13,-1
 0 388 l 1,14,-1
 0 388 l 1,0,-1
EndSplineSet
EndChar

StartChar: egrave
Encoding: 232 232 201
Width: 467
GlyphClass: 1
Flags: W
LayerCount: 2
Fore
SplineSet
233 466 m 1,0,-1
 156 466 l 1,1,-1
 156 388 l 1,2,-1
 0 388 l 1,3,-1
 0 0 l 1,4,-1
 389 0 l 1,5,-1
 389 77 l 1,6,-1
 78 77 l 1,7,-1
 78 155 l 1,8,-1
 233 155 l 1,9,-1
 233 233 l 1,10,-1
 78 233 l 1,11,-1
 78 311 l 1,12,-1
 389 311 l 1,13,-1
 389 388 l 1,14,-1
 233 388 l 1,15,-1
 233 466 l 1,16,-1
 233 466 l 1,0,-1
78 544 m 1,17,-1
 78 466 l 1,18,-1
 156 466 l 1,19,-1
 156 544 l 1,20,-1
 78 544 l 1,21,-1
 78 544 l 1,17,-1
EndSplineSet
EndChar

StartChar: eacute
Encoding: 233 233 202
Width: 467
GlyphClass: 1
Flags: W
LayerCount: 2
Fore
SplineSet
233 466 m 1,0,-1
 155 466 l 1,1,-1
 155 388 l 1,2,-1
 0 388 l 1,3,-1
 0 0 l 1,4,-1
 389 0 l 1,5,-1
 389 77 l 1,6,-1
 78 77 l 1,7,-1
 78 155 l 1,8,-1
 233 155 l 1,9,-1
 233 233 l 1,10,-1
 78 233 l 1,11,-1
 78 311 l 1,12,-1
 389 311 l 1,13,-1
 389 388 l 1,14,-1
 233 388 l 1,15,-1
 233 466 l 1,16,-1
 233 466 l 1,0,-1
311 544 m 1,17,-1
 233 544 l 1,18,-1
 233 466 l 1,19,-1
 311 466 l 1,20,-1
 311 544 l 1,21,-1
 311 544 l 1,17,-1
EndSplineSet
EndChar

StartChar: ecircumflex
Encoding: 234 234 203
Width: 467
GlyphClass: 1
Flags: W
LayerCount: 2
Fore
SplineSet
234 544 m 1,0,-1
 156 544 l 1,1,-1
 156 466 l 1,2,-1
 234 466 l 1,3,-1
 234 544 l 1,4,-1
 234 544 l 1,0,-1
312 466 m 1,5,-1
 234 466 l 1,6,-1
 234 388 l 1,7,-1
 156 388 l 1,8,-1
 156 466 l 1,9,-1
 78 466 l 1,10,-1
 78 388 l 1,11,-1
 0 388 l 1,12,-1
 0 0 l 1,13,-1
 389 0 l 1,14,-1
 389 77 l 1,15,-1
 78 77 l 1,16,-1
 78 155 l 1,17,-1
 234 155 l 1,18,-1
 234 233 l 1,19,-1
 78 233 l 1,20,-1
 78 311 l 1,21,-1
 389 311 l 1,22,-1
 389 388 l 1,23,-1
 312 388 l 1,24,-1
 312 466 l 1,25,-1
 312 466 l 1,5,-1
EndSplineSet
EndChar

StartChar: edieresis
Encoding: 235 235 204
Width: 467
GlyphClass: 1
Flags: W
LayerCount: 2
Fore
SplineSet
233 388 m 1,0,-1
 156 388 l 1,1,-1
 156 544 l 1,2,-1
 0 544 l 1,3,-1
 0 0 l 1,4,-1
 389 0 l 1,5,-1
 389 77 l 1,6,-1
 78 77 l 1,7,-1
 78 155 l 1,8,-1
 233 155 l 1,9,-1
 233 233 l 1,10,-1
 78 233 l 1,11,-1
 78 311 l 1,12,-1
 389 311 l 1,13,-1
 389 544 l 1,14,-1
 233 544 l 1,15,-1
 233 388 l 1,16,-1
 233 388 l 1,0,-1
EndSplineSet
EndChar

StartChar: igrave
Encoding: 236 236 205
Width: 233
GlyphClass: 1
Flags: W
LayerCount: 2
Fore
SplineSet
0 544 m 1,0,-1
 0 466 l 1,1,-1
 78 466 l 1,2,-1
 78 544 l 1,3,-1
 0 544 l 1,4,-1
 0 544 l 1,0,-1
78 388 m 1,5,-1
 155 388 l 1,6,-1
 155 466 l 1,7,-1
 78 466 l 1,8,-1
 78 388 l 1,9,-1
 78 388 l 1,5,-1
0 0 m 1,10,-1
 78 0 l 1,11,-1
 78 388 l 1,12,-1
 0 388 l 1,13,-1
 0 0 l 1,14,-1
 0 0 l 1,10,-1
EndSplineSet
EndChar

StartChar: iacute
Encoding: 237 237 206
Width: 234
GlyphClass: 1
Flags: W
LayerCount: 2
Fore
SplineSet
0 388 m 1,0,-1
 78 388 l 1,1,-1
 78 466 l 1,2,-1
 0 466 l 1,3,-1
 0 388 l 1,4,-1
 0 388 l 1,0,-1
78 466 m 1,5,-1
 156 466 l 1,6,-1
 156 544 l 1,7,-1
 78 544 l 1,8,-1
 78 466 l 1,9,-1
 78 466 l 1,5,-1
156 0 m 1,10,-1
 156 388 l 1,11,-1
 78 388 l 1,12,-1
 78 0 l 1,13,-1
 156 0 l 1,14,-1
 156 0 l 1,10,-1
EndSplineSet
EndChar

StartChar: icircumflex
Encoding: 238 238 207
Width: 312
GlyphClass: 1
Flags: W
LayerCount: 2
Fore
SplineSet
0 466 m 1,0,-1
 0 388 l 1,1,-1
 78 388 l 1,2,-1
 78 466 l 1,3,-1
 0 466 l 1,4,-1
 0 466 l 1,0,-1
156 544 m 1,5,-1
 78 544 l 1,6,-1
 78 466 l 1,7,-1
 156 466 l 1,8,-1
 156 544 l 1,9,-1
 156 544 l 1,5,-1
78 0 m 1,10,-1
 156 0 l 1,11,-1
 156 388 l 1,12,-1
 78 388 l 1,13,-1
 78 0 l 1,14,-1
 78 0 l 1,10,-1
156 388 m 1,15,-1
 234 388 l 1,16,-1
 234 466 l 1,17,-1
 156 466 l 1,18,-1
 156 388 l 1,19,-1
 156 388 l 1,15,-1
EndSplineSet
EndChar

StartChar: idieresis
Encoding: 239 239 208
Width: 311
GlyphClass: 1
Flags: W
LayerCount: 2
Fore
SplineSet
0 544 m 1,0,-1
 0 388 l 1,1,-1
 77 388 l 1,2,-1
 77 544 l 1,3,-1
 0 544 l 1,4,-1
 0 544 l 1,0,-1
155 388 m 1,5,-1
 233 388 l 1,6,-1
 233 544 l 1,7,-1
 155 544 l 1,8,-1
 155 388 l 1,9,-1
 155 388 l 1,5,-1
77 0 m 1,10,-1
 155 0 l 1,11,-1
 155 388 l 1,12,-1
 77 388 l 1,13,-1
 77 0 l 1,14,-1
 77 0 l 1,10,-1
EndSplineSet
EndChar

StartChar: eth
Encoding: 240 240 209
Width: 467
GlyphClass: 1
Flags: W
LayerCount: 2
Fore
SplineSet
77 155 m 1,0,-1
 155 155 l 1,1,-1
 155 233 l 1,2,-1
 77 233 l 1,3,-1
 77 311 l 1,4,-1
 311 311 l 1,5,-1
 311 388 l 1,6,-1
 0 388 l 1,7,-1
 0 0 l 1,8,-1
 311 0 l 1,9,-1
 311 77 l 1,10,-1
 77 77 l 1,11,-1
 77 155 l 1,12,-1
 77 155 l 1,0,-1
311 77 m 1,13,-1
 389 77 l 1,14,-1
 389 311 l 1,15,-1
 311 311 l 1,16,-1
 311 77 l 1,17,-1
 311 77 l 1,13,-1
EndSplineSet
EndChar

StartChar: ntilde
Encoding: 241 241 210
Width: 467
GlyphClass: 1
Flags: W
LayerCount: 2
Fore
SplineSet
311 466 m 1,0,-1
 233 466 l 1,1,-1
 233 544 l 1,2,-1
 0 544 l 1,3,-1
 0 0 l 1,4,-1
 78 0 l 1,5,-1
 78 311 l 1,6,-1
 311 311 l 1,7,-1
 311 0 l 1,8,-1
 389 0 l 1,9,-1
 389 544 l 1,10,-1
 311 544 l 1,11,-1
 311 466 l 1,12,-1
 311 466 l 1,0,-1
78 388 m 1,13,-1
 78 466 l 1,14,-1
 156 466 l 1,15,-1
 156 388 l 1,16,-1
 78 388 l 1,17,-1
 78 388 l 1,13,-1
EndSplineSet
EndChar

StartChar: ograve
Encoding: 242 242 211
Width: 467
GlyphClass: 1
Flags: W
LayerCount: 2
Fore
SplineSet
233 388 m 1,0,-1
 233 466 l 1,1,-1
 155 466 l 1,2,-1
 155 388 l 1,3,-1
 0 388 l 1,4,-1
 0 0 l 1,5,-1
 389 0 l 1,6,-1
 389 388 l 1,7,-1
 233 388 l 1,8,-1
 233 388 l 1,0,-1
311 77 m 1,9,-1
 77 77 l 1,10,-1
 77 311 l 1,11,-1
 311 311 l 1,12,-1
 311 77 l 1,13,-1
 311 77 l 1,9,-1
77 544 m 1,14,-1
 77 466 l 1,15,-1
 155 466 l 1,16,-1
 155 544 l 1,17,-1
 77 544 l 1,18,-1
 77 544 l 1,14,-1
EndSplineSet
EndChar

StartChar: oacute
Encoding: 243 243 212
Width: 467
GlyphClass: 1
Flags: W
LayerCount: 2
Fore
SplineSet
234 388 m 1,0,-1
 234 466 l 1,1,-1
 156 466 l 1,2,-1
 156 388 l 1,3,-1
 0 388 l 1,4,-1
 0 0 l 1,5,-1
 389 0 l 1,6,-1
 389 388 l 1,7,-1
 234 388 l 1,8,-1
 234 388 l 1,0,-1
311 77 m 1,9,-1
 78 77 l 1,10,-1
 78 311 l 1,11,-1
 311 311 l 1,12,-1
 311 77 l 1,13,-1
 311 77 l 1,9,-1
311 544 m 1,14,-1
 234 544 l 1,15,-1
 234 466 l 1,16,-1
 311 466 l 1,17,-1
 311 544 l 1,18,-1
 311 544 l 1,14,-1
EndSplineSet
EndChar

StartChar: ocircumflex
Encoding: 244 244 213
Width: 467
GlyphClass: 1
Flags: W
LayerCount: 2
Fore
SplineSet
233 544 m 1,0,-1
 156 544 l 1,1,-1
 156 466 l 1,2,-1
 233 466 l 1,3,-1
 233 544 l 1,4,-1
 233 544 l 1,0,-1
311 466 m 1,5,-1
 233 466 l 1,6,-1
 233 388 l 1,7,-1
 156 388 l 1,8,-1
 156 466 l 1,9,-1
 78 466 l 1,10,-1
 78 388 l 1,11,-1
 0 388 l 1,12,-1
 0 0 l 1,13,-1
 389 0 l 1,14,-1
 389 388 l 1,15,-1
 311 388 l 1,16,-1
 311 466 l 1,17,-1
 311 466 l 1,5,-1
311 77 m 1,18,-1
 78 77 l 1,19,-1
 78 311 l 1,20,-1
 311 311 l 1,21,-1
 311 77 l 1,22,-1
 311 77 l 1,18,-1
EndSplineSet
EndChar

StartChar: otilde
Encoding: 245 245 214
Width: 467
GlyphClass: 1
Flags: W
LayerCount: 2
Fore
SplineSet
311 466 m 1,0,-1
 233 466 l 1,1,-1
 233 544 l 1,2,-1
 0 544 l 1,3,-1
 0 0 l 1,4,-1
 389 0 l 1,5,-1
 389 544 l 1,6,-1
 311 544 l 1,7,-1
 311 466 l 1,8,-1
 311 466 l 1,0,-1
77 466 m 1,9,-1
 155 466 l 1,10,-1
 155 388 l 1,11,-1
 77 388 l 1,12,-1
 77 466 l 1,13,-1
 77 466 l 1,9,-1
311 77 m 1,14,-1
 77 77 l 1,15,-1
 77 311 l 1,16,-1
 311 311 l 1,17,-1
 311 77 l 1,18,-1
 311 77 l 1,14,-1
EndSplineSet
EndChar

StartChar: odieresis
Encoding: 246 246 215
Width: 467
GlyphClass: 1
Flags: W
LayerCount: 2
Fore
SplineSet
234 388 m 1,0,-1
 156 388 l 1,1,-1
 156 544 l 1,2,-1
 0 544 l 1,3,-1
 0 0 l 1,4,-1
 389 0 l 1,5,-1
 389 544 l 1,6,-1
 234 544 l 1,7,-1
 234 388 l 1,8,-1
 234 388 l 1,0,-1
311 77 m 1,9,-1
 78 77 l 1,10,-1
 78 311 l 1,11,-1
 311 311 l 1,12,-1
 311 77 l 1,13,-1
 311 77 l 1,9,-1
EndSplineSet
EndChar

StartChar: divide
Encoding: 247 247 216
Width: 311
GlyphClass: 1
Flags: W
LayerCount: 2
Fore
SplineSet
0 155 m 1,0,-1
 233 155 l 1,1,-1
 233 233 l 1,2,-1
 0 233 l 1,3,-1
 0 155 l 1,4,-1
 0 155 l 1,0,-1
156 388 m 1,5,-1
 78 388 l 1,6,-1
 78 311 l 1,7,-1
 156 311 l 1,8,-1
 156 388 l 1,9,-1
 156 388 l 1,5,-1
78 0 m 1,10,-1
 156 0 l 1,11,-1
 156 77 l 1,12,-1
 78 77 l 1,13,-1
 78 0 l 1,14,-1
 78 0 l 1,10,-1
EndSplineSet
EndChar

StartChar: oslash
Encoding: 248 248 217
Width: 467
GlyphClass: 1
Flags: W
LayerCount: 2
Fore
SplineSet
0 388 m 1,0,-1
 0 0 l 1,1,-1
 389 0 l 1,2,-1
 389 388 l 1,3,-1
 0 388 l 1,4,-1
 0 388 l 1,0,-1
311 77 m 1,5,-1
 156 77 l 1,6,-1
 156 155 l 1,7,-1
 78 155 l 1,8,-1
 78 311 l 1,9,-1
 233 311 l 1,10,-1
 233 233 l 1,11,-1
 311 233 l 1,12,-1
 311 77 l 1,13,-1
 311 77 l 1,5,-1
233 233 m 1,14,-1
 156 233 l 1,15,-1
 156 155 l 1,16,-1
 233 155 l 1,17,-1
 233 233 l 1,18,-1
 233 233 l 1,14,-1
EndSplineSet
EndChar

StartChar: ugrave
Encoding: 249 249 218
Width: 467
GlyphClass: 1
Flags: W
LayerCount: 2
Fore
SplineSet
311 77 m 1,0,-1
 78 77 l 1,1,-1
 78 388 l 1,2,-1
 0 388 l 1,3,-1
 0 0 l 1,4,-1
 389 0 l 1,5,-1
 389 388 l 1,6,-1
 311 388 l 1,7,-1
 311 77 l 1,8,-1
 311 77 l 1,0,-1
233 388 m 1,9,-1
 233 466 l 1,10,-1
 155 466 l 1,11,-1
 155 388 l 1,12,-1
 233 388 l 1,13,-1
 233 388 l 1,9,-1
155 544 m 1,14,-1
 78 544 l 1,15,-1
 78 466 l 1,16,-1
 155 466 l 1,17,-1
 155 544 l 1,18,-1
 155 544 l 1,14,-1
EndSplineSet
EndChar

StartChar: uacute
Encoding: 250 250 219
Width: 467
GlyphClass: 1
Flags: W
LayerCount: 2
Fore
SplineSet
312 77 m 1,0,-1
 78 77 l 1,1,-1
 78 388 l 1,2,-1
 0 388 l 1,3,-1
 0 0 l 1,4,-1
 389 0 l 1,5,-1
 389 388 l 1,6,-1
 312 388 l 1,7,-1
 312 77 l 1,8,-1
 312 77 l 1,0,-1
234 466 m 1,9,-1
 156 466 l 1,10,-1
 156 388 l 1,11,-1
 234 388 l 1,12,-1
 234 466 l 1,13,-1
 234 466 l 1,9,-1
312 544 m 1,14,-1
 234 544 l 1,15,-1
 234 466 l 1,16,-1
 312 466 l 1,17,-1
 312 544 l 1,18,-1
 312 544 l 1,14,-1
EndSplineSet
EndChar

StartChar: ucircumflex
Encoding: 251 251 220
Width: 467
GlyphClass: 1
Flags: W
LayerCount: 2
Fore
SplineSet
311 77 m 1,0,-1
 78 77 l 1,1,-1
 78 388 l 1,2,-1
 0 388 l 1,3,-1
 0 0 l 1,4,-1
 389 0 l 1,5,-1
 389 388 l 1,6,-1
 311 388 l 1,7,-1
 311 77 l 1,8,-1
 311 77 l 1,0,-1
156 466 m 1,9,-1
 78 466 l 1,10,-1
 78 388 l 1,11,-1
 156 388 l 1,12,-1
 156 466 l 1,13,-1
 156 466 l 1,9,-1
233 544 m 1,14,-1
 156 544 l 1,15,-1
 156 466 l 1,16,-1
 233 466 l 1,17,-1
 233 544 l 1,18,-1
 233 544 l 1,14,-1
311 388 m 1,19,-1
 311 466 l 1,20,-1
 233 466 l 1,21,-1
 233 388 l 1,22,-1
 311 388 l 1,23,-1
 311 388 l 1,19,-1
EndSplineSet
EndChar

StartChar: udieresis
Encoding: 252 252 221
Width: 467
GlyphClass: 1
Flags: W
LayerCount: 2
Fore
SplineSet
233 388 m 1,0,-1
 311 388 l 1,1,-1
 311 77 l 1,2,-1
 77 77 l 1,3,-1
 77 388 l 1,4,-1
 155 388 l 1,5,-1
 155 544 l 1,6,-1
 0 544 l 1,7,-1
 0 0 l 1,8,-1
 389 0 l 1,9,-1
 389 544 l 1,10,-1
 233 544 l 1,11,-1
 233 388 l 1,12,-1
 233 388 l 1,0,-1
EndSplineSet
EndChar

StartChar: yacute
Encoding: 253 253 222
Width: 467
GlyphClass: 1
Flags: W
LayerCount: 2
Fore
SplineSet
0 388 m 1,0,-1
 0 311 l 1,1,-1
 78 311 l 1,2,-1
 78 388 l 1,3,-1
 0 388 l 1,4,-1
 0 388 l 1,0,-1
78 311 m 1,5,-1
 78 233 l 1,6,-1
 156 233 l 1,7,-1
 156 311 l 1,8,-1
 78 311 l 1,9,-1
 78 311 l 1,5,-1
156 0 m 1,10,-1
 234 0 l 1,11,-1
 234 233 l 1,12,-1
 156 233 l 1,13,-1
 156 0 l 1,14,-1
 156 0 l 1,10,-1
234 233 m 1,15,-1
 311 233 l 1,16,-1
 311 311 l 1,17,-1
 234 311 l 1,18,-1
 234 233 l 1,19,-1
 234 233 l 1,15,-1
311 311 m 1,20,-1
 389 311 l 1,21,-1
 389 388 l 1,22,-1
 311 388 l 1,23,-1
 311 311 l 1,24,-1
 311 311 l 1,20,-1
234 466 m 1,25,-1
 156 466 l 1,26,-1
 156 388 l 1,27,-1
 234 388 l 1,28,-1
 234 466 l 1,29,-1
 234 466 l 1,25,-1
311 544 m 1,30,-1
 234 544 l 1,31,-1
 234 466 l 1,32,-1
 311 466 l 1,33,-1
 311 544 l 1,34,-1
 311 544 l 1,30,-1
EndSplineSet
EndChar

StartChar: thorn
Encoding: 254 254 223
Width: 467
GlyphClass: 1
Flags: W
LayerCount: 2
Fore
SplineSet
78 311 m 1,0,-1
 311 311 l 1,1,-1
 311 388 l 1,2,-1
 78 388 l 1,3,-1
 78 544 l 1,4,-1
 0 544 l 1,5,-1
 0 -156 l 1,6,-1
 78 -156 l 1,7,-1
 78 0 l 1,8,-1
 311 0 l 1,9,-1
 311 77 l 1,10,-1
 78 77 l 1,11,-1
 78 311 l 1,12,-1
 78 311 l 1,0,-1
311 77 m 1,13,-1
 389 77 l 1,14,-1
 389 311 l 1,15,-1
 311 311 l 1,16,-1
 311 77 l 1,17,-1
 311 77 l 1,13,-1
EndSplineSet
EndChar

StartChar: ydieresis
Encoding: 255 255 224
Width: 467
GlyphClass: 1
Flags: W
LayerCount: 2
Fore
SplineSet
77 311 m 1,0,-1
 77 233 l 1,1,-1
 155 233 l 1,2,-1
 155 311 l 1,3,-1
 77 311 l 1,4,-1
 77 311 l 1,0,-1
155 0 m 1,5,-1
 233 0 l 1,6,-1
 233 233 l 1,7,-1
 155 233 l 1,8,-1
 155 0 l 1,9,-1
 155 0 l 1,5,-1
233 233 m 1,10,-1
 311 233 l 1,11,-1
 311 311 l 1,12,-1
 233 311 l 1,13,-1
 233 233 l 1,14,-1
 233 233 l 1,10,-1
155 388 m 1,15,-1
 155 544 l 1,16,-1
 0 544 l 1,17,-1
 0 311 l 1,18,-1
 77 311 l 1,19,-1
 77 388 l 1,20,-1
 155 388 l 1,21,-1
 155 388 l 1,15,-1
233 544 m 1,22,-1
 233 388 l 1,23,-1
 311 388 l 1,24,-1
 311 311 l 1,25,-1
 389 311 l 1,26,-1
 389 544 l 1,27,-1
 233 544 l 1,28,-1
 233 544 l 1,22,-1
EndSplineSet
EndChar

